<svg viewBox="0 0 1600 900" preserveAspectRatio="xMidYMid slice" xmlns="http://www.w3.org/2000/svg" aria-hidden="true"><defs>
<radialGradient id="paint0_radial_130105_69704" cx="0" cy="0" r="1" gradientUnits="userSpaceOnUse" gradientTransform="translate(10.3588 10.5082) rotate(90) scale(10.5082 10.3588)">
<stop stop-color="#FD109A"/>
<stop offset="1" stop-color="#FD109A" stop-opacity="0"/>
</radialGradient>
<radialGradient id="paint1_radial_130105_69704" cx="0" cy="0" r="1" gradientUnits="userSpaceOnUse" gradientTransform="translate(7.90326 8.01724) rotate(90) scale(8.01724 7.90326)">
<stop stop-color="#9D57FF"/>
<stop offset="1" stop-color="#9D57FF" stop-opacity="0"/>
</radialGradient>
<radialGradient id="paint2_radial_130105_69704" cx="0" cy="0" r="1" gradientUnits="userSpaceOnUse" gradientTransform="translate(17.8383 18.0956) rotate(90) scale(18.0956 17.8383)">
<stop stop-color="#FB4201"/>
<stop offset="1" stop-color="#FB4201" stop-opacity="0"/>
</radialGradient>
<radialGradient id="paint3_radial_130105_69704" cx="0" cy="0" r="1" gradientUnits="userSpaceOnUse" gradientTransform="translate(13.1151 13.3042) rotate(90) scale(13.3042 13.1151)">
<stop stop-color="#F90600"/>
<stop offset="1" stop-color="#F90600" stop-opacity="0"/>
</radialGradient>
<radialGradient id="paint4_radial_130105_69704" cx="0" cy="0" r="1" gradientUnits="userSpaceOnUse" gradientTransform="translate(12.2105 12.3866) rotate(90) scale(12.3866 12.2105)">
<stop stop-color="#3988FE"/>
<stop offset="0.195" stop-color="#3988FE"/>
<stop offset="1" stop-color="#3988FE" stop-opacity="0"/>
</radialGradient>
<radialGradient id="paint5_radial_130105_69704" cx="0" cy="0" r="1" gradientUnits="userSpaceOnUse" gradientTransform="translate(9.1651 9.29728) rotate(90) scale(9.29728 9.1651)">
<stop stop-color="#727DF9"/>
<stop offset="1" stop-color="#3987FE" stop-opacity="0"/>
</radialGradient>
<radialGradient id="paint6_radial_130105_69704" cx="0" cy="0" r="1" gradientUnits="userSpaceOnUse" gradientTransform="translate(13.1151 13.3042) rotate(90) scale(13.3042 13.1151)">
<stop stop-color="#FD109A"/>
<stop offset="1" stop-color="#FD109A" stop-opacity="0"/>
</radialGradient>
<radialGradient id="paint7_radial_130105_69704" cx="0" cy="0" r="1" gradientUnits="userSpaceOnUse" gradientTransform="translate(17.9719 18.2311) rotate(90) scale(18.2311 17.9719)">
<stop stop-color="#6CE342"/>
<stop offset="0.585" stop-color="#6CE342"/>
<stop offset="1" stop-color="#6CE342" stop-opacity="0"/>
</radialGradient>
<radialGradient id="paint8_radial_130105_69704" cx="0" cy="0" r="1" gradientUnits="userSpaceOnUse" gradientTransform="translate(6.93945 7.03953) rotate(90) scale(7.03953 6.93945)">
<stop stop-color="#94B5AC"/>
<stop offset="1" stop-color="#94B5AC" stop-opacity="0"/>
</radialGradient>
<radialGradient id="paint9_radial_130105_69704" cx="0" cy="0" r="1" gradientUnits="userSpaceOnUse" gradientTransform="translate(10.7905 10.9461) rotate(90) scale(10.9461 10.7905)">
<stop stop-color="#FED20F"/>
<stop offset="1" stop-color="#FED20F" stop-opacity="0"/>
</radialGradient>
<radialGradient id="paint10_radial_130105_69704" cx="0" cy="0" r="1" gradientUnits="userSpaceOnUse" gradientTransform="translate(6.01816 6.10496) rotate(90) scale(6.10496 6.01816)">
<stop stop-color="#3987FE"/>
<stop offset="1" stop-color="#3987FE" stop-opacity="0"/>
</radialGradient>
<radialGradient id="paint11_radial_130105_69704" cx="0" cy="0" r="1" gradientUnits="userSpaceOnUse" gradientTransform="translate(6.12277 6.21107) rotate(90) scale(6.21107 6.12277)">
<stop stop-color="#FDD61D"/>
<stop offset="1" stop-color="#FDD61D" stop-opacity="0"/>
</radialGradient>
<radialGradient id="paint12_radial_130105_69704" cx="0" cy="0" r="1" gradientUnits="userSpaceOnUse" gradientTransform="translate(13.1151 13.3042) rotate(90) scale(13.3042 13.1151)">
<stop stop-color="#F90600"/>
<stop offset="1" stop-color="#F90600" stop-opacity="0"/>
</radialGradient>
<radialGradient id="paint13_radial_130105_69704" cx="0" cy="0" r="1" gradientUnits="userSpaceOnUse" gradientTransform="translate(5.40384 5.48177) rotate(90) scale(5.48177 5.40384)">
<stop stop-color="#FD8000"/>
<stop offset="1" stop-color="#FD8000" stop-opacity="0"/>
</radialGradient>
<radialGradient id="paint14_radial_130105_69704" cx="0" cy="0" r="1" gradientUnits="userSpaceOnUse" gradientTransform="translate(7.54584 7.65467) rotate(90) scale(7.65467 7.54584)">
<stop stop-color="#FED20F"/>
<stop offset="1" stop-color="#FED20F" stop-opacity="0"/>
</radialGradient>
<radialGradient id="paint15_radial_130105_69704" cx="0" cy="0" r="1" gradientUnits="userSpaceOnUse" gradientTransform="translate(6.24706 3.08004) rotate(90) scale(3.08004 6.24706)">
<stop stop-color="#FE53EC"/>
<stop offset="1" stop-color="#FE53EC" stop-opacity="0"/>
</radialGradient>
<radialGradient id="paint16_radial_130105_69704" cx="0" cy="0" r="1" gradientUnits="userSpaceOnUse" gradientTransform="translate(5.34135 4.07702) rotate(90) scale(4.07702 5.34135)">
<stop stop-color="#F91CB9"/>
<stop offset="1" stop-color="#F91CB9" stop-opacity="0"/>
</radialGradient>
<radialGradient id="paint17_radial_130105_69704" cx="0" cy="0" r="1" gradientUnits="userSpaceOnUse" gradientTransform="translate(5.34135 4.07702) rotate(90) scale(4.07702 5.34135)">
<stop stop-color="#F91CB9"/>
<stop offset="1" stop-color="#F91CB9" stop-opacity="0"/>
</radialGradient>
<radialGradient id="paint18_radial_130105_69704" cx="0" cy="0" r="1" gradientUnits="userSpaceOnUse" gradientTransform="translate(5.72799 5.8106) rotate(90) scale(5.8106 5.72799)">
<stop stop-color="#FEB902"/>
<stop offset="1" stop-color="#FEB902" stop-opacity="0"/>
</radialGradient>
<radialGradient id="paint19_radial_130105_69704" cx="0" cy="0" r="1" gradientUnits="userSpaceOnUse" gradientTransform="translate(7.18073 7.28429) rotate(90) scale(7.28429 7.18073)">
<stop stop-color="#358AFF"/>
<stop offset="1" stop-color="#358AFF" stop-opacity="0"/>
</radialGradient>
<radialGradient id="paint20_radial_130105_69704" cx="0" cy="0" r="1" gradientUnits="userSpaceOnUse" gradientTransform="translate(175.719 16.9162) rotate(90) scale(8.34586 8.27135)">
<stop stop-color="#3084FE"/>
<stop offset="1" stop-color="#3084FE" stop-opacity="0"/>
</radialGradient>
<radialGradient id="paint21_radial_130105_69704" cx="0" cy="0" r="1" gradientUnits="userSpaceOnUse" gradientTransform="translate(175.496 17.8185) rotate(90) scale(8.34586 8.27135)">
<stop stop-color="#3084FE"/>
<stop offset="1" stop-color="#3084FE" stop-opacity="0"/>
</radialGradient>
<radialGradient id="paint22_radial_130105_69704" cx="0" cy="0" r="1" gradientUnits="userSpaceOnUse" gradientTransform="translate(182.426 16.9185) rotate(90) scale(4.28571 4.24745)">
<stop stop-color="#6CE342"/>
<stop offset="0.585" stop-color="#6CE342"/>
<stop offset="1" stop-color="#6CE342" stop-opacity="0"/>
</radialGradient>
<radialGradient id="paint23_radial_130105_69704" cx="0" cy="0" r="1" gradientUnits="userSpaceOnUse" gradientTransform="translate(176.613 6.54109) rotate(90) scale(9.24812 9.16555)">
<stop stop-color="#F20A00"/>
<stop offset="1" stop-color="#F20A00" stop-opacity="0"/>
</radialGradient>
<radialGradient id="paint24_radial_130105_69704" cx="0" cy="0" r="1" gradientUnits="userSpaceOnUse" gradientTransform="translate(173.26 10.1489) rotate(90) scale(5.18797 5.14165)">
<stop stop-color="#FF43E3"/>
<stop offset="1" stop-color="#FF43E3" stop-opacity="0"/>
</radialGradient>
<radialGradient id="paint25_radial_130105_69704" cx="0" cy="0" r="1" gradientUnits="userSpaceOnUse" gradientTransform="translate(175.496 6.31597) rotate(90) scale(4.51128 4.471)">
<stop stop-color="#F20A00"/>
<stop offset="1" stop-color="#F20A00" stop-opacity="0"/>
</radialGradient>
<radialGradient id="paint26_radial_130105_69704" cx="0" cy="0" r="1" gradientUnits="userSpaceOnUse" gradientTransform="translate(178.625 7.21831) rotate(90) scale(4.51128 4.471)">
<stop stop-color="#FE3E00"/>
<stop offset="1" stop-color="#FE3E00" stop-opacity="0"/>
</radialGradient>
<radialGradient id="paint27_radial_130105_69704" cx="0" cy="0" r="1" gradientUnits="userSpaceOnUse" gradientTransform="translate(180.414 11.5025) rotate(90) scale(4.73684 4.69455)">
<stop stop-color="#FFC800"/>
<stop offset="1" stop-color="#FFC800" stop-opacity="0"/>
</radialGradient>
<radialGradient id="paint28_radial_130105_69704" cx="0" cy="0" r="1" gradientUnits="userSpaceOnUse" gradientTransform="translate(171.025 13.9868) rotate(90) scale(4.73684 4.69455)">
<stop stop-color="#E059FD"/>
<stop offset="1" stop-color="#E059FD" stop-opacity="0"/>
</radialGradient>
<radialGradient id="paint29_radial_130105_69704" cx="0" cy="0" r="1" gradientUnits="userSpaceOnUse" gradientTransform="translate(181.084 13.7605) rotate(90) scale(2.93233 2.90615)">
<stop stop-color="#F6E30A"/>
<stop offset="1" stop-color="#FFCF6E" stop-opacity="0"/>
</radialGradient>
<radialGradient id="paint30_radial_130105_69704" cx="0" cy="0" r="1" gradientUnits="userSpaceOnUse" gradientTransform="translate(10.3588 10.5082) rotate(90) scale(10.5082 10.3588)">
<stop stop-color="#FD109A"/>
<stop offset="1" stop-color="#FD109A" stop-opacity="0"/>
</radialGradient>
<radialGradient id="paint31_radial_130105_69704" cx="0" cy="0" r="1" gradientUnits="userSpaceOnUse" gradientTransform="translate(7.90326 8.01724) rotate(90) scale(8.01724 7.90326)">
<stop stop-color="#9D57FF"/>
<stop offset="1" stop-color="#9D57FF" stop-opacity="0"/>
</radialGradient>
<radialGradient id="paint32_radial_130105_69704" cx="0" cy="0" r="1" gradientUnits="userSpaceOnUse" gradientTransform="translate(17.8383 18.0956) rotate(90) scale(18.0956 17.8383)">
<stop stop-color="#FB4201"/>
<stop offset="1" stop-color="#FB4201" stop-opacity="0"/>
</radialGradient>
<radialGradient id="paint33_radial_130105_69704" cx="0" cy="0" r="1" gradientUnits="userSpaceOnUse" gradientTransform="translate(13.1151 13.3042) rotate(90) scale(13.3042 13.1151)">
<stop stop-color="#F90600"/>
<stop offset="1" stop-color="#F90600" stop-opacity="0"/>
</radialGradient>
<radialGradient id="paint34_radial_130105_69704" cx="0" cy="0" r="1" gradientUnits="userSpaceOnUse" gradientTransform="translate(12.2105 12.3866) rotate(90) scale(12.3866 12.2105)">
<stop stop-color="#3988FE"/>
<stop offset="0.195" stop-color="#3988FE"/>
<stop offset="1" stop-color="#3988FE" stop-opacity="0"/>
</radialGradient>
<radialGradient id="paint35_radial_130105_69704" cx="0" cy="0" r="1" gradientUnits="userSpaceOnUse" gradientTransform="translate(9.1651 9.29728) rotate(90) scale(9.29728 9.1651)">
<stop stop-color="#727DF9"/>
<stop offset="1" stop-color="#3987FE" stop-opacity="0"/>
</radialGradient>
<radialGradient id="paint36_radial_130105_69704" cx="0" cy="0" r="1" gradientUnits="userSpaceOnUse" gradientTransform="translate(13.1151 13.3042) rotate(90) scale(13.3042 13.1151)">
<stop stop-color="#FD109A"/>
<stop offset="1" stop-color="#FD109A" stop-opacity="0"/>
</radialGradient>
<radialGradient id="paint37_radial_130105_69704" cx="0" cy="0" r="1" gradientUnits="userSpaceOnUse" gradientTransform="translate(17.9719 18.2311) rotate(90) scale(18.2311 17.9719)">
<stop stop-color="#6CE342"/>
<stop offset="0.585" stop-color="#6CE342"/>
<stop offset="1" stop-color="#6CE342" stop-opacity="0"/>
</radialGradient>
<radialGradient id="paint38_radial_130105_69704" cx="0" cy="0" r="1" gradientUnits="userSpaceOnUse" gradientTransform="translate(6.93945 7.03953) rotate(90) scale(7.03953 6.93945)">
<stop stop-color="#94B5AC"/>
<stop offset="1" stop-color="#94B5AC" stop-opacity="0"/>
</radialGradient>
<radialGradient id="paint39_radial_130105_69704" cx="0" cy="0" r="1" gradientUnits="userSpaceOnUse" gradientTransform="translate(10.7905 10.9461) rotate(90) scale(10.9461 10.7905)">
<stop stop-color="#FED20F"/>
<stop offset="1" stop-color="#FED20F" stop-opacity="0"/>
</radialGradient>
<radialGradient id="paint40_radial_130105_69704" cx="0" cy="0" r="1" gradientUnits="userSpaceOnUse" gradientTransform="translate(6.01816 6.10496) rotate(90) scale(6.10496 6.01816)">
<stop stop-color="#3987FE"/>
<stop offset="1" stop-color="#3987FE" stop-opacity="0"/>
</radialGradient>
<radialGradient id="paint41_radial_130105_69704" cx="0" cy="0" r="1" gradientUnits="userSpaceOnUse" gradientTransform="translate(6.12277 6.21107) rotate(90) scale(6.21107 6.12277)">
<stop stop-color="#FDD61D"/>
<stop offset="1" stop-color="#FDD61D" stop-opacity="0"/>
</radialGradient>
<radialGradient id="paint42_radial_130105_69704" cx="0" cy="0" r="1" gradientUnits="userSpaceOnUse" gradientTransform="translate(13.1151 13.3042) rotate(90) scale(13.3042 13.1151)">
<stop stop-color="#F90600"/>
<stop offset="1" stop-color="#F90600" stop-opacity="0"/>
</radialGradient>
<radialGradient id="paint43_radial_130105_69704" cx="0" cy="0" r="1" gradientUnits="userSpaceOnUse" gradientTransform="translate(5.40384 5.48177) rotate(90) scale(5.48177 5.40384)">
<stop stop-color="#FD8000"/>
<stop offset="1" stop-color="#FD8000" stop-opacity="0"/>
</radialGradient>
<radialGradient id="paint44_radial_130105_69704" cx="0" cy="0" r="1" gradientUnits="userSpaceOnUse" gradientTransform="translate(7.54584 7.65467) rotate(90) scale(7.65467 7.54584)">
<stop stop-color="#FED20F"/>
<stop offset="1" stop-color="#FED20F" stop-opacity="0"/>
</radialGradient>
<radialGradient id="paint45_radial_130105_69704" cx="0" cy="0" r="1" gradientUnits="userSpaceOnUse" gradientTransform="translate(6.24706 3.08004) rotate(90) scale(3.08004 6.24706)">
<stop stop-color="#FE53EC"/>
<stop offset="1" stop-color="#FE53EC" stop-opacity="0"/>
</radialGradient>
<radialGradient id="paint46_radial_130105_69704" cx="0" cy="0" r="1" gradientUnits="userSpaceOnUse" gradientTransform="translate(5.34135 4.07702) rotate(90) scale(4.07702 5.34135)">
<stop stop-color="#F91CB9"/>
<stop offset="1" stop-color="#F91CB9" stop-opacity="0"/>
</radialGradient>
<radialGradient id="paint47_radial_130105_69704" cx="0" cy="0" r="1" gradientUnits="userSpaceOnUse" gradientTransform="translate(5.34135 4.07702) rotate(90) scale(4.07702 5.34135)">
<stop stop-color="#F91CB9"/>
<stop offset="1" stop-color="#F91CB9" stop-opacity="0"/>
</radialGradient>
<radialGradient id="paint48_radial_130105_69704" cx="0" cy="0" r="1" gradientUnits="userSpaceOnUse" gradientTransform="translate(5.72799 5.8106) rotate(90) scale(5.8106 5.72799)">
<stop stop-color="#FEB902"/>
<stop offset="1" stop-color="#FEB902" stop-opacity="0"/>
</radialGradient>
<radialGradient id="paint49_radial_130105_69704" cx="0" cy="0" r="1" gradientUnits="userSpaceOnUse" gradientTransform="translate(7.18073 7.28429) rotate(90) scale(7.28429 7.18073)">
<stop stop-color="#358AFF"/>
<stop offset="1" stop-color="#358AFF" stop-opacity="0"/>
</radialGradient>
<radialGradient id="paint50_radial_130105_69704" cx="0" cy="0" r="1" gradientUnits="userSpaceOnUse" gradientTransform="translate(142.682 80.9162) rotate(90) scale(8.34586 8.27135)">
<stop stop-color="#3084FE"/>
<stop offset="1" stop-color="#3084FE" stop-opacity="0"/>
</radialGradient>
<radialGradient id="paint51_radial_130105_69704" cx="0" cy="0" r="1" gradientUnits="userSpaceOnUse" gradientTransform="translate(142.458 81.8185) rotate(90) scale(8.34586 8.27135)">
<stop stop-color="#3084FE"/>
<stop offset="1" stop-color="#3084FE" stop-opacity="0"/>
</radialGradient>
<radialGradient id="paint52_radial_130105_69704" cx="0" cy="0" r="1" gradientUnits="userSpaceOnUse" gradientTransform="translate(149.388 80.9185) rotate(90) scale(4.28571 4.24745)">
<stop stop-color="#6CE342"/>
<stop offset="0.585" stop-color="#6CE342"/>
<stop offset="1" stop-color="#6CE342" stop-opacity="0"/>
</radialGradient>
<radialGradient id="paint53_radial_130105_69704" cx="0" cy="0" r="1" gradientUnits="userSpaceOnUse" gradientTransform="translate(143.576 70.5411) rotate(90) scale(9.24812 9.16555)">
<stop stop-color="#F20A00"/>
<stop offset="1" stop-color="#F20A00" stop-opacity="0"/>
</radialGradient>
<radialGradient id="paint54_radial_130105_69704" cx="0" cy="0" r="1" gradientUnits="userSpaceOnUse" gradientTransform="translate(140.223 74.1489) rotate(90) scale(5.18797 5.14165)">
<stop stop-color="#FF43E3"/>
<stop offset="1" stop-color="#FF43E3" stop-opacity="0"/>
</radialGradient>
<radialGradient id="paint55_radial_130105_69704" cx="0" cy="0" r="1" gradientUnits="userSpaceOnUse" gradientTransform="translate(142.458 70.316) rotate(90) scale(4.51128 4.471)">
<stop stop-color="#F20A00"/>
<stop offset="1" stop-color="#F20A00" stop-opacity="0"/>
</radialGradient>
<radialGradient id="paint56_radial_130105_69704" cx="0" cy="0" r="1" gradientUnits="userSpaceOnUse" gradientTransform="translate(145.588 71.2183) rotate(90) scale(4.51128 4.471)">
<stop stop-color="#FE3E00"/>
<stop offset="1" stop-color="#FE3E00" stop-opacity="0"/>
</radialGradient>
<radialGradient id="paint57_radial_130105_69704" cx="0" cy="0" r="1" gradientUnits="userSpaceOnUse" gradientTransform="translate(147.376 75.5025) rotate(90) scale(4.73684 4.69455)">
<stop stop-color="#FFC800"/>
<stop offset="1" stop-color="#FFC800" stop-opacity="0"/>
</radialGradient>
<radialGradient id="paint58_radial_130105_69704" cx="0" cy="0" r="1" gradientUnits="userSpaceOnUse" gradientTransform="translate(137.987 77.9868) rotate(90) scale(4.73684 4.69455)">
<stop stop-color="#E059FD"/>
<stop offset="1" stop-color="#E059FD" stop-opacity="0"/>
</radialGradient>
<radialGradient id="paint59_radial_130105_69704" cx="0" cy="0" r="1" gradientUnits="userSpaceOnUse" gradientTransform="translate(148.047 77.7605) rotate(90) scale(2.93233 2.90615)">
<stop stop-color="#F6E30A"/>
<stop offset="1" stop-color="#FFCF6E" stop-opacity="0"/>
</radialGradient>
<radialGradient id="paint60_radial_130105_69704" cx="0" cy="0" r="1" gradientUnits="userSpaceOnUse" gradientTransform="translate(76.6017 48.9162) rotate(90) scale(8.34586 8.27135)">
<stop stop-color="#3084FE"/>
<stop offset="1" stop-color="#3084FE" stop-opacity="0"/>
</radialGradient>
<radialGradient id="paint61_radial_130105_69704" cx="0" cy="0" r="1" gradientUnits="userSpaceOnUse" gradientTransform="translate(76.3782 49.8185) rotate(90) scale(8.34586 8.27135)">
<stop stop-color="#3084FE"/>
<stop offset="1" stop-color="#3084FE" stop-opacity="0"/>
</radialGradient>
<radialGradient id="paint62_radial_130105_69704" cx="0" cy="0" r="1" gradientUnits="userSpaceOnUse" gradientTransform="translate(83.3082 48.9185) rotate(90) scale(4.28571 4.24745)">
<stop stop-color="#6CE342"/>
<stop offset="0.585" stop-color="#6CE342"/>
<stop offset="1" stop-color="#6CE342" stop-opacity="0"/>
</radialGradient>
<radialGradient id="paint63_radial_130105_69704" cx="0" cy="0" r="1" gradientUnits="userSpaceOnUse" gradientTransform="translate(77.4959 38.5411) rotate(90) scale(9.24812 9.16555)">
<stop stop-color="#F20A00"/>
<stop offset="1" stop-color="#F20A00" stop-opacity="0"/>
</radialGradient>
<radialGradient id="paint64_radial_130105_69704" cx="0" cy="0" r="1" gradientUnits="userSpaceOnUse" gradientTransform="translate(74.1427 42.1489) rotate(90) scale(5.18797 5.14165)">
<stop stop-color="#FF43E3"/>
<stop offset="1" stop-color="#FF43E3" stop-opacity="0"/>
</radialGradient>
<radialGradient id="paint65_radial_130105_69704" cx="0" cy="0" r="1" gradientUnits="userSpaceOnUse" gradientTransform="translate(76.3782 38.316) rotate(90) scale(4.51128 4.471)">
<stop stop-color="#F20A00"/>
<stop offset="1" stop-color="#F20A00" stop-opacity="0"/>
</radialGradient>
<radialGradient id="paint66_radial_130105_69704" cx="0" cy="0" r="1" gradientUnits="userSpaceOnUse" gradientTransform="translate(79.5079 39.2183) rotate(90) scale(4.51128 4.471)">
<stop stop-color="#FE3E00"/>
<stop offset="1" stop-color="#FE3E00" stop-opacity="0"/>
</radialGradient>
<radialGradient id="paint67_radial_130105_69704" cx="0" cy="0" r="1" gradientUnits="userSpaceOnUse" gradientTransform="translate(81.2962 43.5025) rotate(90) scale(4.73684 4.69455)">
<stop stop-color="#FFC800"/>
<stop offset="1" stop-color="#FFC800" stop-opacity="0"/>
</radialGradient>
<radialGradient id="paint68_radial_130105_69704" cx="0" cy="0" r="1" gradientUnits="userSpaceOnUse" gradientTransform="translate(71.9071 45.9868) rotate(90) scale(4.73684 4.69455)">
<stop stop-color="#E059FD"/>
<stop offset="1" stop-color="#E059FD" stop-opacity="0"/>
</radialGradient>
<radialGradient id="paint69_radial_130105_69704" cx="0" cy="0" r="1" gradientUnits="userSpaceOnUse" gradientTransform="translate(81.9669 45.7605) rotate(90) scale(2.93233 2.90615)">
<stop stop-color="#F6E30A"/>
<stop offset="1" stop-color="#FFCF6E" stop-opacity="0"/>
</radialGradient>
<radialGradient id="paint70_radial_130105_69704" cx="0" cy="0" r="1" gradientUnits="userSpaceOnUse" gradientTransform="translate(10.3588 10.5082) rotate(90) scale(10.5082 10.3588)">
<stop stop-color="#FD109A"/>
<stop offset="1" stop-color="#FD109A" stop-opacity="0"/>
</radialGradient>
<radialGradient id="paint71_radial_130105_69704" cx="0" cy="0" r="1" gradientUnits="userSpaceOnUse" gradientTransform="translate(7.90326 8.01724) rotate(90) scale(8.01724 7.90326)">
<stop stop-color="#9D57FF"/>
<stop offset="1" stop-color="#9D57FF" stop-opacity="0"/>
</radialGradient>
<radialGradient id="paint72_radial_130105_69704" cx="0" cy="0" r="1" gradientUnits="userSpaceOnUse" gradientTransform="translate(17.8383 18.0956) rotate(90) scale(18.0956 17.8383)">
<stop stop-color="#FB4201"/>
<stop offset="1" stop-color="#FB4201" stop-opacity="0"/>
</radialGradient>
<radialGradient id="paint73_radial_130105_69704" cx="0" cy="0" r="1" gradientUnits="userSpaceOnUse" gradientTransform="translate(13.1151 13.3042) rotate(90) scale(13.3042 13.1151)">
<stop stop-color="#F90600"/>
<stop offset="1" stop-color="#F90600" stop-opacity="0"/>
</radialGradient>
<radialGradient id="paint74_radial_130105_69704" cx="0" cy="0" r="1" gradientUnits="userSpaceOnUse" gradientTransform="translate(12.2105 12.3866) rotate(90) scale(12.3866 12.2105)">
<stop stop-color="#3988FE"/>
<stop offset="0.195" stop-color="#3988FE"/>
<stop offset="1" stop-color="#3988FE" stop-opacity="0"/>
</radialGradient>
<radialGradient id="paint75_radial_130105_69704" cx="0" cy="0" r="1" gradientUnits="userSpaceOnUse" gradientTransform="translate(9.1651 9.29728) rotate(90) scale(9.29728 9.1651)">
<stop stop-color="#727DF9"/>
<stop offset="1" stop-color="#3987FE" stop-opacity="0"/>
</radialGradient>
<radialGradient id="paint76_radial_130105_69704" cx="0" cy="0" r="1" gradientUnits="userSpaceOnUse" gradientTransform="translate(13.1151 13.3042) rotate(90) scale(13.3042 13.1151)">
<stop stop-color="#FD109A"/>
<stop offset="1" stop-color="#FD109A" stop-opacity="0"/>
</radialGradient>
<radialGradient id="paint77_radial_130105_69704" cx="0" cy="0" r="1" gradientUnits="userSpaceOnUse" gradientTransform="translate(17.9719 18.2311) rotate(90) scale(18.2311 17.9719)">
<stop stop-color="#6CE342"/>
<stop offset="0.585" stop-color="#6CE342"/>
<stop offset="1" stop-color="#6CE342" stop-opacity="0"/>
</radialGradient>
<radialGradient id="paint78_radial_130105_69704" cx="0" cy="0" r="1" gradientUnits="userSpaceOnUse" gradientTransform="translate(6.93945 7.03953) rotate(90) scale(7.03953 6.93945)">
<stop stop-color="#94B5AC"/>
<stop offset="1" stop-color="#94B5AC" stop-opacity="0"/>
</radialGradient>
<radialGradient id="paint79_radial_130105_69704" cx="0" cy="0" r="1" gradientUnits="userSpaceOnUse" gradientTransform="translate(10.7905 10.9461) rotate(90) scale(10.9461 10.7905)">
<stop stop-color="#FED20F"/>
<stop offset="1" stop-color="#FED20F" stop-opacity="0"/>
</radialGradient>
<radialGradient id="paint80_radial_130105_69704" cx="0" cy="0" r="1" gradientUnits="userSpaceOnUse" gradientTransform="translate(6.01816 6.10496) rotate(90) scale(6.10496 6.01816)">
<stop stop-color="#3987FE"/>
<stop offset="1" stop-color="#3987FE" stop-opacity="0"/>
</radialGradient>
<radialGradient id="paint81_radial_130105_69704" cx="0" cy="0" r="1" gradientUnits="userSpaceOnUse" gradientTransform="translate(6.12277 6.21107) rotate(90) scale(6.21107 6.12277)">
<stop stop-color="#FDD61D"/>
<stop offset="1" stop-color="#FDD61D" stop-opacity="0"/>
</radialGradient>
<radialGradient id="paint82_radial_130105_69704" cx="0" cy="0" r="1" gradientUnits="userSpaceOnUse" gradientTransform="translate(13.1151 13.3042) rotate(90) scale(13.3042 13.1151)">
<stop stop-color="#F90600"/>
<stop offset="1" stop-color="#F90600" stop-opacity="0"/>
</radialGradient>
<radialGradient id="paint83_radial_130105_69704" cx="0" cy="0" r="1" gradientUnits="userSpaceOnUse" gradientTransform="translate(5.40384 5.48177) rotate(90) scale(5.48177 5.40384)">
<stop stop-color="#FD8000"/>
<stop offset="1" stop-color="#FD8000" stop-opacity="0"/>
</radialGradient>
<radialGradient id="paint84_radial_130105_69704" cx="0" cy="0" r="1" gradientUnits="userSpaceOnUse" gradientTransform="translate(7.54584 7.65467) rotate(90) scale(7.65467 7.54584)">
<stop stop-color="#FED20F"/>
<stop offset="1" stop-color="#FED20F" stop-opacity="0"/>
</radialGradient>
<radialGradient id="paint85_radial_130105_69704" cx="0" cy="0" r="1" gradientUnits="userSpaceOnUse" gradientTransform="translate(6.24706 3.08004) rotate(90) scale(3.08004 6.24706)">
<stop stop-color="#FE53EC"/>
<stop offset="1" stop-color="#FE53EC" stop-opacity="0"/>
</radialGradient>
<radialGradient id="paint86_radial_130105_69704" cx="0" cy="0" r="1" gradientUnits="userSpaceOnUse" gradientTransform="translate(5.34135 4.07702) rotate(90) scale(4.07702 5.34135)">
<stop stop-color="#F91CB9"/>
<stop offset="1" stop-color="#F91CB9" stop-opacity="0"/>
</radialGradient>
<radialGradient id="paint87_radial_130105_69704" cx="0" cy="0" r="1" gradientUnits="userSpaceOnUse" gradientTransform="translate(5.34135 4.07702) rotate(90) scale(4.07702 5.34135)">
<stop stop-color="#F91CB9"/>
<stop offset="1" stop-color="#F91CB9" stop-opacity="0"/>
</radialGradient>
<radialGradient id="paint88_radial_130105_69704" cx="0" cy="0" r="1" gradientUnits="userSpaceOnUse" gradientTransform="translate(5.72799 5.8106) rotate(90) scale(5.8106 5.72799)">
<stop stop-color="#FEB902"/>
<stop offset="1" stop-color="#FEB902" stop-opacity="0"/>
</radialGradient>
<radialGradient id="paint89_radial_130105_69704" cx="0" cy="0" r="1" gradientUnits="userSpaceOnUse" gradientTransform="translate(7.18073 7.28429) rotate(90) scale(7.28429 7.18073)">
<stop stop-color="#358AFF"/>
<stop offset="1" stop-color="#358AFF" stop-opacity="0"/>
</radialGradient>
<clipPath id="clip0_130105_69704">
<rect width="25.0376" height="24.3609" fill="white"/>
</clipPath>
<clipPath id="clip1_130105_69704">
<rect width="25.04" height="24.5763" fill="white" transform="translate(33.0376)"/>
</clipPath>
<clipPath id="clip2_130105_69704">
<rect width="25.0376" height="24.3609" fill="white" transform="translate(131.118)"/>
</clipPath>
<clipPath id="clip3_130105_69704">
<rect width="25.0376" height="24.3609" fill="white" transform="translate(131.118)"/>
</clipPath>
<clipPath id="clip4_130105_69704">
<rect width="25.0376" height="24.3609" fill="white" transform="translate(164.155)"/>
</clipPath>
<clipPath id="clip5_130105_69704">
<rect width="25.0376" height="24.3609" fill="white" transform="translate(164.318)"/>
</clipPath>
<clipPath id="clip6_130105_69704">
<rect width="25.0376" height="24.3609" fill="white" transform="translate(33.04 64)"/>
</clipPath>
<clipPath id="clip7_130105_69704">
<rect width="25.04" height="24.5763" fill="white" transform="translate(66.0776 64)"/>
</clipPath>
<clipPath id="clip8_130105_69704">
<rect width="25.0376" height="24.3609" fill="white" transform="translate(131.118 64)"/>
</clipPath>
<clipPath id="clip9_130105_69704">
<rect width="25.0376" height="24.3609" fill="white" transform="translate(131.281 64)"/>
</clipPath>
<clipPath id="clip10_130105_69704">
<rect width="25.0376" height="24.3609" fill="white" transform="translate(196.155 64)"/>
</clipPath>
<clipPath id="clip11_130105_69704">
<rect width="25.0376" height="24.3609" fill="white" transform="translate(196.155 64)"/>
</clipPath>
<clipPath id="clip12_130105_69704">
<rect width="25.0376" height="24.3609" fill="white" transform="translate(0 32)"/>
</clipPath>
<clipPath id="clip13_130105_69704">
<rect width="25.0376" height="24.3609" fill="white" transform="translate(0 32)"/>
</clipPath>
<clipPath id="clip14_130105_69704">
<rect width="25.0376" height="24.3609" fill="white" transform="translate(65.0376 32)"/>
</clipPath>
<clipPath id="clip15_130105_69704">
<rect width="25.0376" height="24.3609" fill="white" transform="translate(65.2007 32)"/>
</clipPath>
<clipPath id="clip16_130105_69704">
<rect width="25.0376" height="24.3609" fill="white" transform="translate(98.0752 32)"/>
</clipPath>
<clipPath id="clip17_130105_69704">
<rect width="25.04" height="24.5763" fill="white" transform="translate(131.113 32)"/>
</clipPath>
<g id="sheet">
<g clip-path="url(#clip0_130105_69704)">
<path d="M20.5216 0H4.51604C2.0219 0 0 1.96725 0 4.39398V19.9669C0 22.3936 2.0219 24.3609 4.51604 24.3609H20.5216C23.0157 24.3609 25.0376 22.3936 25.0376 19.9669V4.39398C25.0376 1.96725 23.0157 0 20.5216 0Z" fill="#001E36"/>
<path d="M8.68884 6.75C11.9484 6.75 13.7845 8.23421 13.7845 10.7244C13.7845 13.6297 11.2946 14.7981 8.9624 14.7981H7.38596V17.938H4.19598V6.75H8.69348H8.68884ZM7.38596 9.40263V12.141H8.79085C9.76917 12.141 10.4554 11.7575 10.4554 10.7876C10.4554 9.90338 9.87117 9.40263 8.86039 9.40263H7.38596Z" fill="#31A8FF"/>
<path d="M14.5727 17.383L14.5912 14.7935C15.5 15.38 16.7704 15.7454 17.6468 15.7454C18.2449 15.7454 18.5231 15.5785 18.5231 15.2762C18.5231 14.9424 18.1475 14.8071 17.4242 14.5905C16.0332 14.189 14.5078 13.6387 14.5078 11.8702C14.5078 10.1018 16.0332 9.06421 18.2495 9.06421C19.2974 9.06421 20.1552 9.21309 20.9109 9.53339L20.8924 12.0056C20.2943 11.6537 19.1073 11.3379 18.3376 11.3379C17.772 11.3379 17.5494 11.5048 17.5494 11.7574C17.5494 12.0597 17.823 12.1409 18.6483 12.3935C20.2433 12.8627 21.5832 13.3635 21.5832 15.1815C21.5832 16.9996 20.1227 18.0868 17.8415 18.0868C16.6406 18.0868 15.5093 17.8883 14.582 17.3875L14.5727 17.383Z" fill="#31A8FF"/>
</g>
<g clip-path="url(#clip1_130105_69704)">
<mask id="mask0_130105_69704" style="mask-type:luminance" maskUnits="userSpaceOnUse" x="33" y="-1" width="26" height="26">
<path d="M37.4688 -0.015625H53.6464C56.0936 -0.015625 58.0776 2.00373 58.0776 4.49458V20.0505C58.0776 22.5413 56.0936 24.5607 53.6464 24.5607H37.4688C35.0216 24.5607 33.0376 22.5413 33.0376 20.0505V4.49458C33.0376 2.00373 35.0216 -0.015625 37.4688 -0.015625Z" fill="white"/>
</mask>
<g mask="url(#mask0_130105_69704)">
<ellipse cx="10.3588" cy="10.5082" rx="10.3588" ry="10.5082" transform="matrix(0.949729 0.313074 -0.303216 0.952922 38.8513 -4.21094)" fill="url(#paint0_radial_130105_69704)"/>
<ellipse cx="7.90326" cy="8.01724" rx="7.90326" ry="8.01724" transform="matrix(0.949729 0.313074 -0.303216 0.952922 27.9111 3.25781)" fill="url(#paint1_radial_130105_69704)"/>
<ellipse cx="17.8383" cy="18.0956" rx="17.8383" ry="18.0956" transform="matrix(0.949729 0.313074 -0.303216 0.952922 43.6707 -21.0547)" fill="url(#paint2_radial_130105_69704)"/>
<ellipse cx="13.1151" cy="13.3042" rx="13.1151" ry="13.3042" transform="matrix(0.949729 0.313074 -0.303216 0.952922 34.7552 -18.9805)" fill="url(#paint3_radial_130105_69704)"/>
<ellipse cx="12.2105" cy="12.3866" rx="12.2105" ry="12.3866" transform="matrix(0.949729 0.313074 -0.303216 0.952922 26.9308 8.89453)" fill="url(#paint4_radial_130105_69704)"/>
<ellipse cx="9.1651" cy="9.29728" rx="9.1651" ry="9.29728" transform="matrix(0.949729 0.313074 -0.303216 0.952922 31.3263 6.39844)" fill="url(#paint5_radial_130105_69704)"/>
<ellipse cx="13.1151" cy="13.3042" rx="13.1151" ry="13.3042" transform="matrix(0.949729 0.313074 -0.303216 0.952922 27.2443 -13.1992)" fill="url(#paint6_radial_130105_69704)"/>
<ellipse cx="17.9719" cy="18.2311" rx="17.9719" ry="18.2311" transform="matrix(0.949729 0.313074 -0.303216 0.952922 45.8557 4.07031)" fill="url(#paint7_radial_130105_69704)"/>
<ellipse cx="6.93945" cy="7.03953" rx="6.93945" ry="7.03953" transform="matrix(0.949729 0.313074 -0.303216 0.952922 40.2944 14.875)" fill="url(#paint8_radial_130105_69704)"/>
<ellipse cx="10.7905" cy="10.9461" rx="10.7905" ry="10.9461" transform="matrix(0.949729 0.313074 -0.303216 0.952922 43.0542 2.07422)" fill="url(#paint9_radial_130105_69704)"/>
<ellipse cx="6.01816" cy="6.10496" rx="6.01816" ry="6.10496" transform="matrix(0.949729 0.313074 -0.303216 0.952922 36.6152 14.5625)" fill="url(#paint10_radial_130105_69704)" fill-opacity="0.4"/>
<ellipse cx="6.12277" cy="6.21107" rx="6.12277" ry="6.21107" transform="matrix(0.949729 0.313074 -0.303216 0.952922 47.3382 8.90234)" fill="url(#paint11_radial_130105_69704)"/>
<ellipse cx="13.1151" cy="13.3042" rx="13.1151" ry="13.3042" transform="matrix(0.949729 0.313074 -0.303216 0.952922 34.7552 -18.9805)" fill="url(#paint12_radial_130105_69704)"/>
<ellipse cx="5.40384" cy="5.48177" rx="5.40384" ry="5.48177" transform="matrix(0.949729 0.313074 -0.303216 0.952922 53.8109 2.05859)" fill="url(#paint13_radial_130105_69704)"/>
<ellipse cx="7.54584" cy="7.65467" rx="7.54584" ry="7.65467" transform="matrix(0.949729 0.313074 -0.303216 0.952922 52.0435 5.74609)" fill="url(#paint14_radial_130105_69704)"/>
<ellipse cx="6.24706" cy="3.08004" rx="6.24706" ry="3.08004" transform="matrix(0.949729 0.313074 -0.303216 0.952922 35.7997 5.91797)" fill="url(#paint15_radial_130105_69704)"/>
<ellipse cx="5.34135" cy="4.07702" rx="5.34135" ry="4.07702" transform="matrix(0.949729 0.313074 -0.303216 0.952922 31.4857 0.457031)" fill="url(#paint16_radial_130105_69704)"/>
<ellipse cx="5.34135" cy="4.07702" rx="5.34135" ry="4.07702" transform="matrix(0.949729 0.313074 -0.303216 0.952922 31.9328 -2.73047)" fill="url(#paint17_radial_130105_69704)"/>
<ellipse cx="5.72799" cy="5.8106" rx="5.72799" ry="5.8106" transform="matrix(0.949729 0.313074 -0.303216 0.952922 48.6342 6.82812)" fill="url(#paint18_radial_130105_69704)" fill-opacity="0.4"/>
<ellipse cx="7.18073" cy="7.28429" rx="7.18073" ry="7.28429" transform="matrix(0.949729 0.313074 -0.303216 0.952922 30.627 13.5312)" fill="url(#paint19_radial_130105_69704)"/>
</g>
<path d="M52.5281 7.54071C51.3102 6.19962 49.6425 5.46094 47.8322 5.46094C46.0954 5.46094 44.3289 6.22417 43.199 7.45808C42.9927 7.43417 42.7832 7.42214 42.5752 7.42214C39.1697 7.42214 37.0619 10.3582 37.0619 13.0785C37.0619 14.5179 37.6256 15.9568 38.6085 17.0261C39.6509 18.1602 41.0596 18.7847 42.5752 18.7847H47.8322C51.4003 18.7847 54.3031 15.7862 54.3031 12.1005C54.3031 10.4448 53.6562 8.78278 52.5281 7.54071ZM42.477 17.8204C39.9583 17.8204 37.9092 15.7112 37.9092 13.1188C37.9092 10.5431 39.9488 8.44768 42.4559 8.44768C43.587 8.44768 44.6653 8.86822 45.4938 9.63216L45.5161 9.65199L47.4104 11.6443C47.5618 11.8015 47.6443 12.0125 47.6421 12.2375C47.6399 12.4597 47.5521 12.6684 47.3949 12.8251C47.2421 12.9769 47.0404 13.0605 46.8267 13.0605C46.604 13.0605 46.396 12.9705 46.241 12.8072L44.3614 10.8301C43.8321 10.3633 43.1563 10.1064 42.4576 10.1064C40.8498 10.1064 39.5417 11.4447 39.5417 13.0898C39.5417 14.7313 40.9061 16.1182 42.5211 16.1182L42.8963 16.12L42.8997 16.1308C43.4369 16.8905 44.9333 17.8204 44.9333 17.8204H42.477V17.8204ZM51.8432 16.1349C50.7932 17.2428 49.4028 17.8529 47.9278 17.8529C46.5255 17.8529 45.0932 17.2104 43.9984 16.09L41.4948 13.5184C41.1806 13.1872 41.1875 12.6569 41.5085 12.3346C41.6629 12.1812 41.8652 12.0969 42.0788 12.0969C42.3016 12.0969 42.509 12.1864 42.6628 12.3486L45.1488 14.9038C45.9381 15.7146 46.951 16.1797 47.9278 16.1797C48.964 16.1797 49.9414 15.7466 50.68 14.9602C51.4173 14.1768 51.8232 13.1508 51.8232 12.0714C51.8232 9.86289 50.0694 8.06603 47.9137 8.06603C47.0915 8.06603 46.412 8.22897 45.7484 8.71316C45.7413 8.70718 45.5615 8.58503 45.3584 8.45858C45.2325 8.3801 45.0969 8.30204 44.9901 8.24269C44.8714 8.17651 44.531 8.00534 44.3285 7.91955C44.2781 7.89817 44.213 7.8737 44.1856 7.86378L44.1913 7.86062C45.2218 6.87333 46.5041 6.39281 47.9137 6.39281C50.9696 6.39281 53.4558 8.94023 53.4558 12.0714C53.4558 13.5924 52.8831 15.0355 51.8432 16.1349V16.1349Z" fill="white"/>
</g>
<path d="M85.7508 1.38473e-07L70.4043 3.04544e-08C68.0147 1.36349e-08 66.0776 1.93715 66.0776 4.32675L66.0776 19.6732C66.0776 22.0628 68.0147 24 70.4043 24L85.7508 24C88.1404 24 90.0776 22.0628 90.0776 19.6732L90.0776 4.32675C90.0776 1.93715 88.1404 1.55292e-07 85.7508 1.38473e-07Z" fill="#330000"/>
<path d="M73.9138 6.41547L77.4331 6.41547L81.3802 17.434L78.1569 17.434L77.6141 15.7566L73.4863 15.7566L72.9435 17.434L69.8517 17.434L73.9138 6.41547ZM76.7591 13.1417L75.5586 9.44151L74.358 13.1417L76.7591 13.1417Z" fill="#FF9A00"/>
<path d="M81.9778 7.13911C81.9778 6.34972 82.5863 5.83984 83.5073 5.83984C84.4119 5.83984 84.9874 6.3661 84.9874 7.13911C84.9874 7.92849 84.4119 8.47114 83.5073 8.47114C82.5533 8.47114 81.9778 7.94488 81.9778 7.13911ZM82.0601 8.84939L84.9381 8.84939L84.9381 17.434L82.0601 17.434L82.0601 8.84939Z" fill="#FF9A00"/>
<path d="M102.504 0H118.691C121.15 0 123.118 2.00251 123.118 4.50565V20.0706C123.118 22.5738 121.15 24.5763 118.691 24.5763H102.504C100.045 24.5763 98.0776 22.5738 98.0776 20.0706V4.50565C98.0776 2.00251 100.045 0 102.504 0Z" fill="#B30B00"/>
<path d="M118.199 14.1993C117.036 12.9704 113.862 13.4711 113.102 13.5621C111.984 12.4698 111.224 11.15 110.955 10.6949C111.358 9.46604 111.626 8.23723 111.671 6.91739C111.671 5.7796 111.224 4.55078 109.972 4.55078C109.524 4.55078 109.122 4.82385 108.898 5.18794C108.362 6.14369 108.585 8.05518 109.435 10.0122C108.943 11.423 108.496 12.7884 107.244 15.2005C105.947 15.7467 103.22 17.021 102.996 18.3863C102.907 18.7959 103.041 19.2055 103.354 19.5241C103.667 19.7972 104.069 19.9337 104.472 19.9337C106.126 19.9337 107.736 17.6126 108.854 15.6556C109.793 15.337 111.268 14.8819 112.744 14.6089C114.488 16.1563 116.008 16.3838 116.813 16.3838C117.886 16.3838 118.288 15.9287 118.423 15.5191C118.646 15.064 118.512 14.5633 118.199 14.1993ZM117.081 14.973C117.036 15.2915 116.634 15.6101 115.919 15.4281C115.069 15.2005 114.309 14.7909 113.638 14.2448C114.219 14.1537 115.516 14.0172 116.455 14.1993C116.813 14.2903 117.171 14.5178 117.081 14.973ZM109.614 5.59755C109.703 5.46101 109.837 5.36999 109.972 5.36999C110.374 5.36999 110.463 5.87062 110.463 6.28022C110.419 7.23597 110.24 8.19171 109.927 9.10195C109.256 7.28148 109.39 6.00715 109.614 5.59755ZM109.524 14.4268C109.882 13.6986 110.374 12.4243 110.553 11.8782C110.955 12.5608 111.626 13.38 111.984 13.7441C111.984 13.7896 110.598 14.0627 109.524 14.4268ZM106.886 16.2473C105.858 17.9767 104.785 19.069 104.203 19.069C104.114 19.069 104.025 19.0235 103.935 18.978C103.801 18.887 103.756 18.7504 103.801 18.5684C103.935 17.9312 105.098 17.0665 106.886 16.2473Z" fill="white"/>
<g clip-path="url(#clip2_130105_69704)">
<g clip-path="url(#clip3_130105_69704)">
<path d="M151.639 0H135.634C133.139 0 131.118 1.96725 131.118 4.39398V19.9669C131.118 22.3936 133.139 24.3609 135.634 24.3609H151.639C154.133 24.3609 156.155 22.3936 156.155 19.9669V4.39398C156.155 1.96725 154.133 0 151.639 0Z" fill="#EB1000"/>
<path d="M137.368 6.75H145.755V9.40263H140.558V11.3199H145.157V13.9726H140.558V17.9289H137.368V6.75Z" fill="white"/>
<path d="M147.095 9.21875H150.1V17.9345H147.095V9.21875Z" fill="white"/>
<path d="M149.112 7.6056L150.183 7.84019C150.605 7.93042 150.897 7.4432 150.6 7.13643L149.859 6.35598C149.761 6.25222 149.72 6.11237 149.752 5.97252L149.993 4.93493C150.086 4.52891 149.585 4.2447 149.265 4.52891L148.458 5.25072C148.352 5.34545 148.203 5.38154 148.064 5.35448L146.993 5.11989C146.571 5.02966 146.279 5.51688 146.576 5.82365L147.318 6.6041C147.415 6.70786 147.457 6.84771 147.424 6.98756L147.183 8.02515C147.091 8.43117 147.591 8.71538 147.911 8.43117L148.718 7.70936C148.825 7.61463 148.973 7.57854 149.112 7.6056Z" fill="white"/>
</g>
</g>
<g clip-path="url(#clip4_130105_69704)">
<g clip-path="url(#clip5_130105_69704)">
<path d="M168.749 0H184.925C187.372 0 189.356 2.00165 189.356 4.47068V19.8902C189.356 22.3592 187.372 24.3609 184.925 24.3609H168.749C166.302 24.3609 164.318 22.3592 164.318 19.8902V4.47068C164.318 2.00165 166.302 0 168.749 0Z" fill="#000B1D"/>
<mask id="mask1_130105_69704" style="mask-type:luminance" maskUnits="userSpaceOnUse" x="170" y="5" width="14" height="14">
<path d="M179.528 6.99034C179.075 5.90989 178.026 5.20703 176.862 5.20703C175.699 5.20703 174.64 5.91169 174.188 6.99575L170.528 15.7896C170.027 16.9909 170.9 18.3195 172.192 18.3195H176.267C177.268 18.3173 178.078 17.498 178.078 16.487C178.078 15.4761 177.265 14.6545 176.262 14.6545C176.22 14.6545 175.565 14.66 175.565 14.66C175.27 14.66 175.071 14.3568 175.185 14.0821L176.484 10.9589C176.626 10.6197 177.087 10.6174 177.229 10.9567L179.88 17.2093C180.243 18.0439 180.936 18.3164 181.547 18.3182C182.842 18.3182 183.714 16.9878 183.21 15.7851L179.528 6.99034Z" fill="white"/>
</mask>
<g mask="url(#mask1_130105_69704)">
<rect x="173.115" y="7.44531" width="20.3008" height="20.3008" fill="#FFFEFE"/>
<ellipse cx="175.719" cy="16.9162" rx="8.27135" ry="8.34586" fill="url(#paint20_radial_130105_69704)"/>
<ellipse cx="175.496" cy="17.8185" rx="8.27135" ry="8.34586" fill="url(#paint21_radial_130105_69704)"/>
<ellipse cx="182.426" cy="16.9185" rx="4.24745" ry="4.28571" fill="url(#paint22_radial_130105_69704)"/>
<ellipse cx="176.613" cy="6.54109" rx="9.16555" ry="9.24812" fill="url(#paint23_radial_130105_69704)"/>
<ellipse cx="173.26" cy="10.1489" rx="5.14165" ry="5.18797" fill="url(#paint24_radial_130105_69704)"/>
<ellipse cx="175.496" cy="6.31597" rx="4.471" ry="4.51128" fill="url(#paint25_radial_130105_69704)"/>
<ellipse cx="178.625" cy="7.21831" rx="4.471" ry="4.51128" fill="url(#paint26_radial_130105_69704)"/>
<ellipse cx="180.414" cy="11.5025" rx="4.69455" ry="4.73684" fill="url(#paint27_radial_130105_69704)"/>
<ellipse cx="171.025" cy="13.9868" rx="4.69455" ry="4.73684" fill="url(#paint28_radial_130105_69704)"/>
<ellipse cx="181.084" cy="13.7605" rx="2.90615" ry="2.93233" fill="url(#paint29_radial_130105_69704)"/>
</g>
</g>
</g>
<path d="M216.866 0H201.52C199.13 0 197.193 1.93715 197.193 4.32675V19.6732C197.193 22.0628 199.13 24 201.52 24H216.866C219.256 24 221.193 22.0628 221.193 19.6732V4.32675C221.193 1.93715 219.256 0 216.866 0Z" fill="#1E3101"/>
<path d="M216.811 10.1293V8.35148C216.811 7.54246 216.35 6.80437 215.622 6.45037L210.118 3.77174C209.534 3.48754 208.852 3.48754 208.268 3.77174L202.763 6.45037C202.046 6.79942 201.587 7.52195 201.575 8.31764C201.574 8.32893 201.574 8.34017 201.574 8.35147V10.8446C201.574 11.394 201.945 11.8744 202.476 12.0139L213.276 14.8326C213.364 14.8545 213.375 14.9756 213.293 15.0137L209.718 16.7063C209.386 16.8664 208.999 16.8664 208.667 16.7063L205.52 15.1881C205.102 14.9865 204.836 14.5634 204.836 14.0993V13.9053H201.574V15.6716C201.574 16.4833 202.039 17.2233 202.77 17.5759L208.274 20.231C208.855 20.511 209.531 20.511 210.111 20.231L215.616 17.5759C216.315 17.2386 216.77 16.5466 216.808 15.7767C216.81 15.7418 216.811 15.7068 216.811 15.6716V13.2503C216.811 12.7009 216.441 12.2206 215.909 12.081L205.049 9.22972L205.082 9.23738C205.071 9.23446 205.061 9.22992 205.053 9.22422C204.995 9.1857 204.995 9.09225 205.064 9.0578L208.664 7.2951C208.998 7.13261 209.388 7.13261 209.722 7.2951L212.869 8.82671C213.285 9.02912 213.549 9.45115 213.549 9.91373V10.1293L216.811 10.1293Z" fill="#99E83F"/>
<path d="M4.42671 64H20.6133C23.0726 64 25.04 66.0025 25.04 68.5057V84.0706C25.04 86.5738 23.0726 88.5763 20.6133 88.5763H4.42671C1.96743 88.5763 0 86.5738 0 84.0706V68.5057C0 66.0025 1.96743 64 4.42671 64Z" fill="#B30B00"/>
<path d="M20.1214 78.1993C18.9588 76.9704 15.7841 77.4711 15.024 77.5621C13.9061 76.4698 13.146 75.15 12.8777 74.6949C13.2801 73.466 13.5484 72.2372 13.5931 70.9174C13.5931 69.7796 13.146 68.5508 11.894 68.5508C11.4468 68.5508 11.0444 68.8239 10.8208 69.1879C10.2843 70.1437 10.5078 72.0552 11.3574 74.0122C10.8656 75.423 10.4184 76.7884 9.16641 79.2005C7.8697 79.7467 5.14213 81.021 4.91855 82.3863C4.82913 82.7959 4.96327 83.2055 5.27627 83.5241C5.58927 83.7972 5.9917 83.9337 6.39413 83.9337C8.04856 83.9337 9.65827 81.6126 10.7761 79.6556C11.7151 79.337 13.1907 78.8819 14.6663 78.6089C16.4101 80.1563 17.9304 80.3838 18.7353 80.3838C19.8084 80.3838 20.2108 79.9287 20.345 79.5191C20.5686 79.064 20.4344 78.5633 20.1214 78.1993ZM19.0036 78.973C18.9588 79.2915 18.5564 79.6101 17.841 79.4281C16.9914 79.2005 16.2313 78.7909 15.5606 78.2448C16.1418 78.1537 17.4386 78.0172 18.3776 78.1993C18.7353 78.2903 19.093 78.5178 19.0036 78.973ZM11.5363 69.5975C11.6257 69.461 11.7598 69.37 11.894 69.37C12.2964 69.37 12.3858 69.8706 12.3858 70.2802C12.3411 71.236 12.1623 72.1917 11.8493 73.1019C11.1786 71.2815 11.3127 70.0072 11.5363 69.5975ZM11.4468 78.4268C11.8046 77.6986 12.2964 76.4243 12.4753 75.8782C12.8777 76.5608 13.5484 77.38 13.9061 77.7441C13.9061 77.7896 12.52 78.0627 11.4468 78.4268ZM8.8087 80.2473C7.78027 81.9767 6.70713 83.069 6.12584 83.069C6.03641 83.069 5.94698 83.0235 5.85756 82.978C5.72341 82.887 5.6787 82.7504 5.72341 82.5684C5.85755 81.9312 7.02013 81.0665 8.8087 80.2473Z" fill="white"/>
<g clip-path="url(#clip6_130105_69704)">
<path d="M53.5615 64H37.556C35.0619 64 33.04 65.9673 33.04 68.394V83.9669C33.04 86.3936 35.0619 88.3609 37.556 88.3609H53.5615C56.0557 88.3609 58.0776 86.3936 58.0776 83.9669V68.394C58.0776 65.9673 56.0557 64 53.5615 64Z" fill="#001E36"/>
<path d="M41.7288 70.75C44.9883 70.75 46.8244 72.2342 46.8244 74.7244C46.8244 77.6297 44.3346 78.7981 42.0024 78.7981H40.4259V81.938H37.236V70.75H41.7335H41.7288ZM40.4259 73.4026V76.141H41.8308C42.8091 76.141 43.4954 75.7575 43.4954 74.7876C43.4954 73.9034 42.9112 73.4026 41.9004 73.4026H40.4259Z" fill="#31A8FF"/>
<path d="M47.6127 81.383L47.6312 78.7935C48.54 79.38 49.8104 79.7454 50.6867 79.7454C51.2849 79.7454 51.5631 79.5785 51.5631 79.2762C51.5631 78.9424 51.1875 78.8071 50.4642 78.5905C49.0732 78.189 47.5478 77.6387 47.5478 75.8702C47.5478 74.1018 49.0732 73.0642 51.2895 73.0642C52.3374 73.0642 53.1951 73.2131 53.9509 73.5334L53.9324 76.0056C53.3342 75.6537 52.1473 75.3379 51.3776 75.3379C50.8119 75.3379 50.5894 75.5048 50.5894 75.7574C50.5894 76.0597 50.8629 76.1409 51.6882 76.3935C53.2832 76.8627 54.6232 77.3635 54.6232 79.1815C54.6232 80.9996 53.1627 82.0868 50.8815 82.0868C49.6806 82.0868 48.5493 81.8883 47.622 81.3875L47.6127 81.383Z" fill="#31A8FF"/>
</g>
<g clip-path="url(#clip7_130105_69704)">
<mask id="mask2_130105_69704" style="mask-type:luminance" maskUnits="userSpaceOnUse" x="66" y="63" width="26" height="26">
<path d="M70.5088 63.9844H86.6864C89.1336 63.9844 91.1176 66.0037 91.1176 68.4946V84.0505C91.1176 86.5413 89.1336 88.5607 86.6864 88.5607H70.5088C68.0615 88.5607 66.0776 86.5413 66.0776 84.0505V68.4946C66.0776 66.0037 68.0615 63.9844 70.5088 63.9844Z" fill="white"/>
</mask>
<g mask="url(#mask2_130105_69704)">
<ellipse cx="10.3588" cy="10.5082" rx="10.3588" ry="10.5082" transform="matrix(0.949729 0.313074 -0.303216 0.952922 71.8913 59.7891)" fill="url(#paint30_radial_130105_69704)"/>
<ellipse cx="7.90326" cy="8.01724" rx="7.90326" ry="8.01724" transform="matrix(0.949729 0.313074 -0.303216 0.952922 60.951 67.2578)" fill="url(#paint31_radial_130105_69704)"/>
<ellipse cx="17.8383" cy="18.0956" rx="17.8383" ry="18.0956" transform="matrix(0.949729 0.313074 -0.303216 0.952922 76.7106 42.9453)" fill="url(#paint32_radial_130105_69704)"/>
<ellipse cx="13.1151" cy="13.3042" rx="13.1151" ry="13.3042" transform="matrix(0.949729 0.313074 -0.303216 0.952922 67.7952 45.0195)" fill="url(#paint33_radial_130105_69704)"/>
<ellipse cx="12.2105" cy="12.3866" rx="12.2105" ry="12.3866" transform="matrix(0.949729 0.313074 -0.303216 0.952922 59.9708 72.8945)" fill="url(#paint34_radial_130105_69704)"/>
<ellipse cx="9.1651" cy="9.29728" rx="9.1651" ry="9.29728" transform="matrix(0.949729 0.313074 -0.303216 0.952922 64.3663 70.3984)" fill="url(#paint35_radial_130105_69704)"/>
<ellipse cx="13.1151" cy="13.3042" rx="13.1151" ry="13.3042" transform="matrix(0.949729 0.313074 -0.303216 0.952922 60.2842 50.8008)" fill="url(#paint36_radial_130105_69704)"/>
<ellipse cx="17.9719" cy="18.2311" rx="17.9719" ry="18.2311" transform="matrix(0.949729 0.313074 -0.303216 0.952922 78.8957 68.0703)" fill="url(#paint37_radial_130105_69704)"/>
<ellipse cx="6.93945" cy="7.03953" rx="6.93945" ry="7.03953" transform="matrix(0.949729 0.313074 -0.303216 0.952922 73.3344 78.875)" fill="url(#paint38_radial_130105_69704)"/>
<ellipse cx="10.7905" cy="10.9461" rx="10.7905" ry="10.9461" transform="matrix(0.949729 0.313074 -0.303216 0.952922 76.0942 66.0742)" fill="url(#paint39_radial_130105_69704)"/>
<ellipse cx="6.01816" cy="6.10496" rx="6.01816" ry="6.10496" transform="matrix(0.949729 0.313074 -0.303216 0.952922 69.6552 78.5625)" fill="url(#paint40_radial_130105_69704)" fill-opacity="0.4"/>
<ellipse cx="6.12277" cy="6.21107" rx="6.12277" ry="6.21107" transform="matrix(0.949729 0.313074 -0.303216 0.952922 80.3782 72.9023)" fill="url(#paint41_radial_130105_69704)"/>
<ellipse cx="13.1151" cy="13.3042" rx="13.1151" ry="13.3042" transform="matrix(0.949729 0.313074 -0.303216 0.952922 67.7952 45.0195)" fill="url(#paint42_radial_130105_69704)"/>
<ellipse cx="5.40384" cy="5.48177" rx="5.40384" ry="5.48177" transform="matrix(0.949729 0.313074 -0.303216 0.952922 86.8508 66.0586)" fill="url(#paint43_radial_130105_69704)"/>
<ellipse cx="7.54584" cy="7.65467" rx="7.54584" ry="7.65467" transform="matrix(0.949729 0.313074 -0.303216 0.952922 85.0834 69.7461)" fill="url(#paint44_radial_130105_69704)"/>
<ellipse cx="6.24706" cy="3.08004" rx="6.24706" ry="3.08004" transform="matrix(0.949729 0.313074 -0.303216 0.952922 68.8397 69.918)" fill="url(#paint45_radial_130105_69704)"/>
<ellipse cx="5.34135" cy="4.07702" rx="5.34135" ry="4.07702" transform="matrix(0.949729 0.313074 -0.303216 0.952922 64.5256 64.457)" fill="url(#paint46_radial_130105_69704)"/>
<ellipse cx="5.34135" cy="4.07702" rx="5.34135" ry="4.07702" transform="matrix(0.949729 0.313074 -0.303216 0.952922 64.9728 61.2695)" fill="url(#paint47_radial_130105_69704)"/>
<ellipse cx="5.72799" cy="5.8106" rx="5.72799" ry="5.8106" transform="matrix(0.949729 0.313074 -0.303216 0.952922 81.6742 70.8281)" fill="url(#paint48_radial_130105_69704)" fill-opacity="0.4"/>
<ellipse cx="7.18073" cy="7.28429" rx="7.18073" ry="7.28429" transform="matrix(0.949729 0.313074 -0.303216 0.952922 63.6669 77.5312)" fill="url(#paint49_radial_130105_69704)"/>
</g>
<path d="M85.5681 71.5407C84.3502 70.1996 82.6825 69.4609 80.8721 69.4609C79.1353 69.4609 77.3689 70.2242 76.239 71.4581C76.0327 71.4342 75.8232 71.4221 75.6152 71.4221C72.2097 71.4221 70.1019 74.3582 70.1019 77.0785C70.1019 78.5179 70.6656 79.9568 71.6484 81.0261C72.6909 82.1602 74.0996 82.7847 75.6152 82.7847H80.8721C84.4402 82.7847 87.3431 79.7862 87.3431 76.1005C87.3431 74.4448 86.6962 72.7828 85.5681 71.5407ZM75.517 81.8204C72.9983 81.8204 70.9492 79.7112 70.9492 77.1188C70.9492 74.5431 72.9888 72.4477 75.4959 72.4477C76.6269 72.4477 77.7053 72.8682 78.5337 73.6322L78.5561 73.652L80.4504 75.6443C80.6018 75.8015 80.6843 76.0125 80.682 76.2375C80.6798 76.4597 80.592 76.6684 80.4348 76.8251C80.2821 76.9769 80.0804 77.0605 79.8667 77.0605C79.6439 77.0605 79.436 76.9705 79.281 76.8072L77.4013 74.8301C76.8721 74.3633 76.1963 74.1064 75.4976 74.1064C73.8898 74.1064 72.5817 75.4447 72.5817 77.0898C72.5817 78.7313 73.946 80.1182 75.561 80.1182L75.9362 80.12L75.9397 80.1308C76.4769 80.8905 77.9733 81.8204 77.9733 81.8204H75.517V81.8204ZM84.8832 80.1349C83.8332 81.2428 82.4428 81.8529 80.9678 81.8529C79.5654 81.8529 78.1332 81.2104 77.0384 80.09L74.5348 77.5184C74.2206 77.1872 74.2274 76.6569 74.5485 76.3346C74.7028 76.1812 74.9052 76.0969 75.1188 76.0969C75.3416 76.0969 75.549 76.1864 75.7028 76.3486L78.1888 78.9038C78.9781 79.7146 79.991 80.1797 80.9678 80.1797C82.004 80.1797 82.9814 79.7466 83.72 78.9602C84.4572 78.1768 84.8632 77.1508 84.8632 76.0714C84.8632 73.8629 83.1094 72.066 80.9537 72.066C80.1314 72.066 79.452 72.229 78.7884 72.7132C78.7812 72.7072 78.6014 72.585 78.3984 72.4586C78.2725 72.3801 78.1368 72.302 78.0301 72.2427C77.9114 72.1765 77.571 72.0053 77.3685 71.9195C77.3181 71.8982 77.253 71.8737 77.2256 71.8638L77.2313 71.8606C78.2617 70.8733 79.5441 70.3928 80.9537 70.3928C84.0096 70.3928 86.4957 72.9402 86.4957 76.0714C86.4957 77.5924 85.923 79.0355 84.8832 80.1349V80.1349Z" fill="white"/>
</g>
<path d="M118.791 64L103.444 64C101.055 64 99.1176 65.9372 99.1176 68.3268L99.1176 83.6732C99.1176 86.0628 101.055 88 103.444 88L118.791 88C121.18 88 123.118 86.0628 123.118 83.6732L123.118 68.3268C123.118 65.9372 121.18 64 118.791 64Z" fill="#330000"/>
<path d="M106.954 70.4155L110.473 70.4155L114.42 81.434L111.197 81.434L110.654 79.7566L106.526 79.7566L105.984 81.434L102.892 81.434L106.954 70.4155ZM109.799 77.1417L108.599 73.4415L107.398 77.1417L109.799 77.1417Z" fill="#FF9A00"/>
<path d="M115.018 71.1391C115.018 70.3497 115.626 69.8398 116.547 69.8398C117.452 69.8398 118.027 70.3661 118.027 71.1391C118.027 71.9285 117.452 72.4711 116.547 72.4711C115.593 72.4711 115.018 71.9449 115.018 71.1391ZM115.1 72.8494L117.978 72.8494L117.978 81.434L115.1 81.434L115.1 72.8494Z" fill="#FF9A00"/>
<g clip-path="url(#clip8_130105_69704)">
<g clip-path="url(#clip9_130105_69704)">
<path d="M135.711 64H151.887C154.334 64 156.318 66.0017 156.318 68.4707V83.8902C156.318 86.3592 154.334 88.3609 151.887 88.3609H135.711C133.264 88.3609 131.281 86.3592 131.281 83.8902V68.4707C131.281 66.0017 133.264 64 135.711 64Z" fill="#000B1D"/>
<mask id="mask3_130105_69704" style="mask-type:luminance" maskUnits="userSpaceOnUse" x="137" y="69" width="14" height="14">
<path d="M146.49 70.9903C146.037 69.9099 144.989 69.207 143.825 69.207C142.661 69.207 141.602 69.9117 141.15 70.9958L137.491 79.7896C136.989 80.9909 137.862 82.3195 139.154 82.3195H143.229C144.23 82.3173 145.04 81.498 145.04 80.487C145.04 79.4761 144.227 78.6545 143.224 78.6545C143.183 78.6545 142.527 78.66 142.527 78.66C142.232 78.66 142.033 78.3568 142.148 78.0821L143.447 74.9589C143.588 74.6197 144.049 74.6174 144.192 74.9567L146.842 81.2093C147.206 82.0439 147.899 82.3164 148.509 82.3182C149.804 82.3182 150.677 80.9878 150.172 79.7851L146.49 70.9903Z" fill="white"/>
</mask>
<g mask="url(#mask3_130105_69704)">
<rect x="140.078" y="71.4453" width="20.3008" height="20.3008" fill="#FFFEFE"/>
<ellipse cx="142.682" cy="80.9162" rx="8.27135" ry="8.34586" fill="url(#paint50_radial_130105_69704)"/>
<ellipse cx="142.458" cy="81.8185" rx="8.27135" ry="8.34586" fill="url(#paint51_radial_130105_69704)"/>
<ellipse cx="149.388" cy="80.9185" rx="4.24745" ry="4.28571" fill="url(#paint52_radial_130105_69704)"/>
<ellipse cx="143.576" cy="70.5411" rx="9.16555" ry="9.24812" fill="url(#paint53_radial_130105_69704)"/>
<ellipse cx="140.223" cy="74.1489" rx="5.14165" ry="5.18797" fill="url(#paint54_radial_130105_69704)"/>
<ellipse cx="142.458" cy="70.316" rx="4.471" ry="4.51128" fill="url(#paint55_radial_130105_69704)"/>
<ellipse cx="145.588" cy="71.2183" rx="4.471" ry="4.51128" fill="url(#paint56_radial_130105_69704)"/>
<ellipse cx="147.376" cy="75.5025" rx="4.69455" ry="4.73684" fill="url(#paint57_radial_130105_69704)"/>
<ellipse cx="137.987" cy="77.9868" rx="4.69455" ry="4.73684" fill="url(#paint58_radial_130105_69704)"/>
<ellipse cx="148.047" cy="77.7605" rx="2.90615" ry="2.93233" fill="url(#paint59_radial_130105_69704)"/>
</g>
</g>
</g>
<path d="M183.828 64H168.482C166.092 64 164.155 65.9372 164.155 68.3268V83.6732C164.155 86.0628 166.092 88 168.482 88H183.828C186.218 88 188.155 86.0628 188.155 83.6732V68.3268C188.155 65.9372 186.218 64 183.828 64Z" fill="#1E3101"/>
<path d="M183.774 74.1293V72.3515C183.774 71.5425 183.312 70.8044 182.585 70.4504L177.08 67.7717C176.496 67.4875 175.814 67.4875 175.23 67.7717L169.726 70.4504C169.008 70.7994 168.55 71.522 168.537 72.3176C168.537 72.3289 168.536 72.3402 168.536 72.3515V74.8446C168.536 75.394 168.907 75.8744 169.438 76.0139L180.238 78.8326C180.326 78.8545 180.338 78.9756 180.255 79.0137L176.68 80.7063C176.348 80.8664 175.962 80.8664 175.63 80.7063L172.483 79.1881C172.065 78.9865 171.799 78.5634 171.799 78.0993V77.9053H168.536V79.6716C168.536 80.4833 169.001 81.2233 169.732 81.5759L175.237 84.231C175.817 84.511 176.493 84.511 177.074 84.231L182.578 81.5759C183.277 81.2386 183.733 80.5466 183.771 79.7767C183.773 79.7418 183.774 79.7068 183.774 79.6716V77.2503C183.774 76.7009 183.403 76.2206 182.872 76.081L172.011 73.2297L172.045 73.2374C172.034 73.2345 172.024 73.2299 172.015 73.2242C171.957 73.1857 171.957 73.0923 172.026 73.0578L175.626 71.2951C175.96 71.1326 176.35 71.1326 176.684 71.2951L179.831 72.8267C180.247 73.0291 180.511 73.4512 180.511 73.9137V74.1293L183.774 74.1293Z" fill="#99E83F"/>
<g clip-path="url(#clip10_130105_69704)">
<g clip-path="url(#clip11_130105_69704)">
<path d="M216.677 64H200.671C198.177 64 196.155 65.9673 196.155 68.394V83.9669C196.155 86.3936 198.177 88.3609 200.671 88.3609H216.677C219.171 88.3609 221.193 86.3936 221.193 83.9669V68.394C221.193 65.9673 219.171 64 216.677 64Z" fill="#EB1000"/>
<path d="M202.405 70.75H210.793V73.4026H205.595V75.3199H210.195V77.9726H205.595V81.9289H202.405V70.75Z" fill="white"/>
<path d="M212.133 73.2188H215.137V81.9345H212.133V73.2188Z" fill="white"/>
<path d="M214.15 71.6056L215.221 71.8402C215.643 71.9304 215.935 71.4432 215.638 71.1364L214.896 70.356C214.799 70.2522 214.757 70.1124 214.79 69.9725L215.031 68.9349C215.123 68.5289 214.623 68.2447 214.303 68.5289L213.496 69.2507C213.389 69.3455 213.241 69.3815 213.102 69.3545L212.031 69.1199C211.609 69.0297 211.317 69.5169 211.614 69.8236L212.355 70.6041C212.453 70.7079 212.494 70.8477 212.462 70.9876L212.221 72.0252C212.128 72.4312 212.629 72.7154 212.949 72.4312L213.756 71.7094C213.862 71.6146 214.011 71.5785 214.15 71.6056Z" fill="white"/>
</g>
</g>
<g clip-path="url(#clip12_130105_69704)">
<g clip-path="url(#clip13_130105_69704)">
<path d="M20.5216 32H4.51604C2.0219 32 0 33.9673 0 36.394V51.9669C0 54.3936 2.0219 56.3609 4.51604 56.3609H20.5216C23.0157 56.3609 25.0376 54.3936 25.0376 51.9669V36.394C25.0376 33.9673 23.0157 32 20.5216 32Z" fill="#EB1000"/>
<path d="M6.25012 38.75H14.6377V41.4026H9.4401V43.3199H14.0396V45.9726H9.4401V49.9289H6.25012V38.75Z" fill="white"/>
<path d="M15.9777 41.2188H18.9822V49.9345H15.9777V41.2188Z" fill="white"/>
<path d="M17.9946 39.6056L19.0656 39.8402C19.4876 39.9304 19.7797 39.4432 19.4829 39.1364L18.7411 38.356C18.6437 38.2522 18.602 38.1124 18.6344 37.9725L18.8755 36.9349C18.9683 36.5289 18.4675 36.2447 18.1476 36.5289L17.3408 37.2507C17.2342 37.3455 17.0858 37.3815 16.9467 37.3545L15.8757 37.1199C15.4537 37.0297 15.1616 37.5169 15.4584 37.8236L16.2002 38.6041C16.2976 38.7079 16.3393 38.8477 16.3069 38.9876L16.0658 40.0252C15.973 40.4312 16.4738 40.7154 16.7937 40.4312L17.6005 39.7094C17.7071 39.6146 17.8555 39.5785 17.9946 39.6056Z" fill="white"/>
</g>
</g>
<path d="M52.7108 32H37.3643C34.9748 32 33.0376 33.9372 33.0376 36.3268V51.6732C33.0376 54.0628 34.9748 56 37.3643 56H52.7108C55.1004 56 57.0376 54.0628 57.0376 51.6732V36.3268C57.0376 33.9372 55.1004 32 52.7108 32Z" fill="#1E3101"/>
<path d="M52.6562 42.1293V40.3515C52.6562 39.5425 52.1946 38.8044 51.4671 38.4504L45.9627 35.7717C45.3787 35.4875 44.6964 35.4875 44.1124 35.7717L38.608 38.4504C37.8907 38.7994 37.4322 39.522 37.4195 40.3176C37.4193 40.3289 37.4189 40.3402 37.4189 40.3515V42.8446C37.4189 43.394 37.7894 43.8744 38.3208 44.0139L49.1204 46.8326C49.2089 46.8545 49.2203 46.9756 49.1375 47.0137L45.5628 48.7063C45.2309 48.8664 44.8442 48.8664 44.5123 48.7063L41.365 47.1881C40.947 46.9865 40.6813 46.5634 40.6813 46.0993V45.9053H37.4189V47.6716C37.4189 48.4833 37.8835 49.2233 38.6146 49.5759L44.119 52.231C44.6994 52.511 45.3757 52.511 45.9561 52.231L51.4605 49.5759C52.1599 49.2386 52.6151 48.5466 52.6533 47.7767C52.6551 47.7418 52.6562 47.7068 52.6562 47.6716V45.2503C52.6562 44.7009 52.2857 44.2206 51.7543 44.081L40.8936 41.2297L40.9271 41.2374C40.916 41.2345 40.9062 41.2299 40.8976 41.2242C40.8395 41.1857 40.8394 41.0923 40.9089 41.0578L44.5086 39.2951C44.8425 39.1326 45.2326 39.1326 45.5665 39.2951L48.7139 40.8267C49.1298 41.0291 49.3938 41.4512 49.3938 41.9137V42.1293L52.6562 42.1293Z" fill="#99E83F"/>
<g clip-path="url(#clip14_130105_69704)">
<g clip-path="url(#clip15_130105_69704)">
<path d="M69.6314 32H85.8075C88.2545 32 90.2383 34.0017 90.2383 36.4707V51.8902C90.2383 54.3592 88.2545 56.3609 85.8075 56.3609H69.6314C67.1845 56.3609 65.2007 54.3592 65.2007 51.8902V36.4707C65.2007 34.0017 67.1845 32 69.6314 32Z" fill="#000B1D"/>
<mask id="mask4_130105_69704" style="mask-type:luminance" maskUnits="userSpaceOnUse" x="71" y="37" width="14" height="14">
<path d="M80.4101 38.9903C79.9572 37.9099 78.9087 37.207 77.7449 37.207C76.5811 37.207 75.5224 37.9117 75.0704 38.9958L71.4109 47.7896C70.9092 48.9909 71.7824 50.3195 73.0741 50.3195H77.1494C78.15 50.3173 78.9602 49.498 78.9602 48.487C78.9602 47.4761 78.1473 46.6545 77.144 46.6545C77.1029 46.6545 76.4475 46.66 76.4475 46.66C76.1524 46.66 75.9534 46.3568 76.0679 46.0821L77.3667 42.9589C77.508 42.6197 77.9694 42.6174 78.1116 42.9567L80.762 49.2093C81.1259 50.0439 81.8189 50.3164 82.4292 50.3182C83.724 50.3182 84.5967 48.9878 84.0924 47.7851L80.4101 38.9903Z" fill="white"/>
</mask>
<g mask="url(#mask4_130105_69704)">
<rect x="73.9977" y="39.4453" width="20.3008" height="20.3008" fill="#FFFEFE"/>
<ellipse cx="76.6017" cy="48.9162" rx="8.27135" ry="8.34586" fill="url(#paint60_radial_130105_69704)"/>
<ellipse cx="76.3782" cy="49.8185" rx="8.27135" ry="8.34586" fill="url(#paint61_radial_130105_69704)"/>
<ellipse cx="83.3082" cy="48.9185" rx="4.24745" ry="4.28571" fill="url(#paint62_radial_130105_69704)"/>
<ellipse cx="77.4959" cy="38.5411" rx="9.16555" ry="9.24812" fill="url(#paint63_radial_130105_69704)"/>
<ellipse cx="74.1427" cy="42.1489" rx="5.14165" ry="5.18797" fill="url(#paint64_radial_130105_69704)"/>
<ellipse cx="76.3782" cy="38.316" rx="4.471" ry="4.51128" fill="url(#paint65_radial_130105_69704)"/>
<ellipse cx="79.5079" cy="39.2183" rx="4.471" ry="4.51128" fill="url(#paint66_radial_130105_69704)"/>
<ellipse cx="81.2962" cy="43.5025" rx="4.69455" ry="4.73684" fill="url(#paint67_radial_130105_69704)"/>
<ellipse cx="71.9071" cy="45.9868" rx="4.69455" ry="4.73684" fill="url(#paint68_radial_130105_69704)"/>
<ellipse cx="81.9669" cy="45.7605" rx="2.90615" ry="2.93233" fill="url(#paint69_radial_130105_69704)"/>
</g>
</g>
</g>
<g clip-path="url(#clip16_130105_69704)">
<path d="M118.597 32H102.591C100.097 32 98.0752 33.9673 98.0752 36.394V51.9669C98.0752 54.3936 100.097 56.3609 102.591 56.3609H118.597C121.091 56.3609 123.113 54.3936 123.113 51.9669V36.394C123.113 33.9673 121.091 32 118.597 32Z" fill="#001E36"/>
<path d="M106.764 38.75C110.024 38.75 111.86 40.2342 111.86 42.7244C111.86 45.6297 109.37 46.7981 107.038 46.7981H105.461V49.938H102.271V38.75H106.769H106.764ZM105.461 41.4026V44.141H106.866C107.844 44.141 108.531 43.7575 108.531 42.7876C108.531 41.9034 107.946 41.4026 106.936 41.4026H105.461Z" fill="#31A8FF"/>
<path d="M112.648 49.383L112.666 46.7935C113.575 47.38 114.846 47.7454 115.722 47.7454C116.32 47.7454 116.598 47.5785 116.598 47.2762C116.598 46.9424 116.223 46.8071 115.499 46.5905C114.108 46.189 112.583 45.6387 112.583 43.8702C112.583 42.1018 114.108 41.0642 116.325 41.0642C117.373 41.0642 118.23 41.2131 118.986 41.5334L118.968 44.0056C118.369 43.6537 117.182 43.3379 116.413 43.3379C115.847 43.3379 115.625 43.5048 115.625 43.7574C115.625 44.0597 115.898 44.1409 116.723 44.3935C118.318 44.8627 119.658 45.3635 119.658 47.1815C119.658 48.9996 118.198 50.0868 115.917 50.0868C114.716 50.0868 113.584 49.8883 112.657 49.3875L112.648 49.383Z" fill="#31A8FF"/>
</g>
<g clip-path="url(#clip17_130105_69704)">
<mask id="mask5_130105_69704" style="mask-type:luminance" maskUnits="userSpaceOnUse" x="131" y="31" width="26" height="26">
<path d="M135.544 31.9844H151.722C154.169 31.9844 156.153 34.0037 156.153 36.4946V52.0505C156.153 54.5413 154.169 56.5607 151.722 56.5607H135.544C133.097 56.5607 131.113 54.5413 131.113 52.0505V36.4946C131.113 34.0037 133.097 31.9844 135.544 31.9844Z" fill="white"/>
</mask>
<g mask="url(#mask5_130105_69704)">
<ellipse cx="10.3588" cy="10.5082" rx="10.3588" ry="10.5082" transform="matrix(0.949729 0.313074 -0.303216 0.952922 136.927 27.7891)" fill="url(#paint70_radial_130105_69704)"/>
<ellipse cx="7.90326" cy="8.01724" rx="7.90326" ry="8.01724" transform="matrix(0.949729 0.313074 -0.303216 0.952922 125.986 35.2578)" fill="url(#paint71_radial_130105_69704)"/>
<ellipse cx="17.8383" cy="18.0956" rx="17.8383" ry="18.0956" transform="matrix(0.949729 0.313074 -0.303216 0.952922 141.746 10.9453)" fill="url(#paint72_radial_130105_69704)"/>
<ellipse cx="13.1151" cy="13.3042" rx="13.1151" ry="13.3042" transform="matrix(0.949729 0.313074 -0.303216 0.952922 132.83 13.0195)" fill="url(#paint73_radial_130105_69704)"/>
<ellipse cx="12.2105" cy="12.3866" rx="12.2105" ry="12.3866" transform="matrix(0.949729 0.313074 -0.303216 0.952922 125.006 40.8945)" fill="url(#paint74_radial_130105_69704)"/>
<ellipse cx="9.1651" cy="9.29728" rx="9.1651" ry="9.29728" transform="matrix(0.949729 0.313074 -0.303216 0.952922 129.401 38.3984)" fill="url(#paint75_radial_130105_69704)"/>
<ellipse cx="13.1151" cy="13.3042" rx="13.1151" ry="13.3042" transform="matrix(0.949729 0.313074 -0.303216 0.952922 125.319 18.8008)" fill="url(#paint76_radial_130105_69704)"/>
<ellipse cx="17.9719" cy="18.2311" rx="17.9719" ry="18.2311" transform="matrix(0.949729 0.313074 -0.303216 0.952922 143.931 36.0703)" fill="url(#paint77_radial_130105_69704)"/>
<ellipse cx="6.93945" cy="7.03953" rx="6.93945" ry="7.03953" transform="matrix(0.949729 0.313074 -0.303216 0.952922 138.37 46.875)" fill="url(#paint78_radial_130105_69704)"/>
<ellipse cx="10.7905" cy="10.9461" rx="10.7905" ry="10.9461" transform="matrix(0.949729 0.313074 -0.303216 0.952922 141.129 34.0742)" fill="url(#paint79_radial_130105_69704)"/>
<ellipse cx="6.01816" cy="6.10496" rx="6.01816" ry="6.10496" transform="matrix(0.949729 0.313074 -0.303216 0.952922 134.69 46.5625)" fill="url(#paint80_radial_130105_69704)" fill-opacity="0.4"/>
<ellipse cx="6.12277" cy="6.21107" rx="6.12277" ry="6.21107" transform="matrix(0.949729 0.313074 -0.303216 0.952922 145.413 40.9023)" fill="url(#paint81_radial_130105_69704)"/>
<ellipse cx="13.1151" cy="13.3042" rx="13.1151" ry="13.3042" transform="matrix(0.949729 0.313074 -0.303216 0.952922 132.83 13.0195)" fill="url(#paint82_radial_130105_69704)"/>
<ellipse cx="5.40384" cy="5.48177" rx="5.40384" ry="5.48177" transform="matrix(0.949729 0.313074 -0.303216 0.952922 151.886 34.0586)" fill="url(#paint83_radial_130105_69704)"/>
<ellipse cx="7.54584" cy="7.65467" rx="7.54584" ry="7.65467" transform="matrix(0.949729 0.313074 -0.303216 0.952922 150.119 37.7461)" fill="url(#paint84_radial_130105_69704)"/>
<ellipse cx="6.24706" cy="3.08004" rx="6.24706" ry="3.08004" transform="matrix(0.949729 0.313074 -0.303216 0.952922 133.875 37.918)" fill="url(#paint85_radial_130105_69704)"/>
<ellipse cx="5.34135" cy="4.07702" rx="5.34135" ry="4.07702" transform="matrix(0.949729 0.313074 -0.303216 0.952922 129.561 32.457)" fill="url(#paint86_radial_130105_69704)"/>
<ellipse cx="5.34135" cy="4.07702" rx="5.34135" ry="4.07702" transform="matrix(0.949729 0.313074 -0.303216 0.952922 130.008 29.2695)" fill="url(#paint87_radial_130105_69704)"/>
<ellipse cx="5.72799" cy="5.8106" rx="5.72799" ry="5.8106" transform="matrix(0.949729 0.313074 -0.303216 0.952922 146.709 38.8281)" fill="url(#paint88_radial_130105_69704)" fill-opacity="0.4"/>
<ellipse cx="7.18073" cy="7.28429" rx="7.18073" ry="7.28429" transform="matrix(0.949729 0.313074 -0.303216 0.952922 128.702 45.5312)" fill="url(#paint89_radial_130105_69704)"/>
</g>
<path d="M150.603 39.5407C149.385 38.1996 147.718 37.4609 145.907 37.4609C144.171 37.4609 142.404 38.2242 141.274 39.4581C141.068 39.4342 140.858 39.4221 140.65 39.4221C137.245 39.4221 135.137 42.3582 135.137 45.0785C135.137 46.5179 135.701 47.9568 136.684 49.0261C137.726 50.1602 139.135 50.7847 140.65 50.7847H145.907C149.475 50.7847 152.378 47.7862 152.378 44.1005C152.378 42.4448 151.731 40.7828 150.603 39.5407ZM140.552 49.8204C138.034 49.8204 135.984 47.7112 135.984 45.1188C135.984 42.5431 138.024 40.4477 140.531 40.4477C141.662 40.4477 142.741 40.8682 143.569 41.6322L143.591 41.652L145.486 43.6443C145.637 43.8015 145.72 44.0125 145.717 44.2375C145.715 44.4597 145.627 44.6684 145.47 44.8251C145.317 44.9769 145.116 45.0605 144.902 45.0605C144.679 45.0605 144.471 44.9705 144.316 44.8072L142.437 42.8301C141.907 42.3633 141.232 42.1064 140.533 42.1064C138.925 42.1064 137.617 43.4447 137.617 45.0898C137.617 46.7313 138.981 48.1182 140.596 48.1182L140.971 48.12L140.975 48.1308C141.512 48.8905 143.009 49.8204 143.009 49.8204H140.552V49.8204ZM149.918 48.1349C148.868 49.2428 147.478 49.8529 146.003 49.8529C144.601 49.8529 143.168 49.2104 142.074 48.09L139.57 45.5184C139.256 45.1872 139.263 44.6569 139.584 44.3346C139.738 44.1812 139.94 44.0969 140.154 44.0969C140.377 44.0969 140.584 44.1864 140.738 44.3486L143.224 46.9038C144.013 47.7146 145.026 48.1797 146.003 48.1797C147.039 48.1797 148.017 47.7466 148.755 46.9602C149.492 46.1768 149.898 45.1508 149.898 44.0714C149.898 41.8629 148.145 40.066 145.989 40.066C145.167 40.066 144.487 40.229 143.824 40.7132C143.816 40.7072 143.637 40.585 143.434 40.4586C143.308 40.3801 143.172 40.302 143.065 40.2427C142.947 40.1765 142.606 40.0053 142.404 39.9195C142.353 39.8982 142.288 39.8737 142.261 39.8638L142.267 39.8606C143.297 38.8733 144.579 38.3928 145.989 38.3928C149.045 38.3928 151.531 40.9402 151.531 44.0714C151.531 45.5924 150.958 47.0355 149.918 48.1349V48.1349Z" fill="white"/>
</g>
<path d="M183.826 32L168.48 32C166.09 32 164.153 33.9372 164.153 36.3268L164.153 51.6732C164.153 54.0628 166.09 56 168.48 56L183.826 56C186.216 56 188.153 54.0628 188.153 51.6732L188.153 36.3268C188.153 33.9372 186.216 32 183.826 32Z" fill="#330000"/>
<path d="M171.989 38.4155L175.508 38.4155L179.455 49.434L176.232 49.434L175.689 47.7566L171.562 47.7566L171.019 49.434L167.927 49.434L171.989 38.4155ZM174.834 45.1417L173.634 41.4415L172.433 45.1417L174.834 45.1417Z" fill="#FF9A00"/>
<path d="M180.053 39.1391C180.053 38.3497 180.662 37.8398 181.583 37.8398C182.487 37.8398 183.063 38.3661 183.063 39.1391C183.063 39.9285 182.487 40.4711 181.583 40.4711C180.629 40.4711 180.053 39.9449 180.053 39.1391ZM180.135 40.8494L183.013 40.8494L183.013 49.434L180.135 49.434L180.135 40.8494Z" fill="#FF9A00"/>
<path d="M200.58 32H216.766C219.225 32 221.193 34.0025 221.193 36.5057V52.0706C221.193 54.5738 219.225 56.5763 216.766 56.5763H200.58C198.12 56.5763 196.153 54.5738 196.153 52.0706V36.5057C196.153 34.0025 198.12 32 200.58 32Z" fill="#B30B00"/>
<path d="M216.274 46.1993C215.112 44.9704 211.937 45.4711 211.177 45.5621C210.059 44.4698 209.299 43.15 209.031 42.6949C209.433 41.466 209.701 40.2372 209.746 38.9174C209.746 37.7796 209.299 36.5508 208.047 36.5508C207.6 36.5508 207.197 36.8239 206.974 37.1879C206.437 38.1437 206.661 40.0552 207.51 42.0122C207.018 43.423 206.571 44.7884 205.319 47.2005C204.023 47.7467 201.295 49.021 201.071 50.3863C200.982 50.7959 201.116 51.2055 201.429 51.5241C201.742 51.7972 202.145 51.9337 202.547 51.9337C204.201 51.9337 205.811 49.6126 206.929 47.6556C207.868 47.337 209.344 46.8819 210.819 46.6089C212.563 48.1563 214.083 48.3838 214.888 48.3838C215.961 48.3838 216.364 47.9287 216.498 47.5191C216.721 47.064 216.587 46.5633 216.274 46.1993ZM215.156 46.973C215.112 47.2915 214.709 47.6101 213.994 47.4281C213.144 47.2005 212.384 46.7909 211.713 46.2448C212.295 46.1537 213.591 46.0172 214.53 46.1993C214.888 46.2903 215.246 46.5178 215.156 46.973ZM207.689 37.5975C207.779 37.461 207.913 37.37 208.047 37.37C208.449 37.37 208.539 37.8706 208.539 38.2802C208.494 39.236 208.315 40.1917 208.002 41.1019C207.331 39.2815 207.466 38.0072 207.689 37.5975ZM207.6 46.4268C207.957 45.6986 208.449 44.4243 208.628 43.8782C209.031 44.5608 209.701 45.38 210.059 45.7441C210.059 45.7896 208.673 46.0627 207.6 46.4268ZM204.962 48.2473C203.933 49.9767 202.86 51.069 202.279 51.069C202.189 51.069 202.1 51.0235 202.01 50.978C201.876 50.887 201.832 50.7504 201.876 50.5684C202.01 49.9312 203.173 49.0665 204.962 48.2473Z" fill="white"/>
</g><symbol id="a0" viewBox="0 0 25.04 24.58"><use href="#sheet"/></symbol><symbol id="a1" viewBox="33.0376 0 25.04 24.58"><use href="#sheet"/></symbol><symbol id="a2" viewBox="66.0776 0 25.04 24.58"><use href="#sheet"/></symbol><symbol id="a3" viewBox="99.1176 0 25.04 24.58"><use href="#sheet"/></symbol><symbol id="a4" viewBox="132.155 0 25.04 24.58"><use href="#sheet"/></symbol><symbol id="a5" viewBox="164.155 0 25.04 24.58"><use href="#sheet"/></symbol><symbol id="a6" viewBox="197.193 0 25.04 24.58"><use href="#sheet"/></symbol><radialGradient id="pwVig" cx="50%" cy="50%" r="70%"><stop offset="0%" stop-color="#14141A"/><stop offset="58%" stop-color="#08080B"/><stop offset="100%" stop-color="#000"/></radialGradient></defs><rect width="1600" height="900" fill="url(#pwVig)"/><g transform="rotate(-20 800.0 450.0)"><use href="#a2" x="2034" y="1286" width="236" height="236" opacity="0.1"/><use href="#a0" x="2177" y="1000" width="236" height="236" opacity="0.1"/><use href="#a4" x="2177" y="-144" width="236" height="236" opacity="0.1"/><use href="#a3" x="2034" y="-430" width="236" height="236" opacity="0.1"/><use href="#a1" x="-540" y="1286" width="236" height="236" opacity="0.1"/><use href="#a6" x="2177" y="428" width="236" height="236" opacity="0.1"/><use href="#a3" x="-540" y="-430" width="236" height="236" opacity="0.1"/><use href="#a3" x="1748" y="1286" width="236" height="236" opacity="0.1"/><use href="#a2" x="2034" y="714" width="236" height="236" opacity="0.1"/><use href="#a4" x="1891" y="1000" width="236" height="236" opacity="0.1"/><use href="#a5" x="2034" y="142" width="236" height="236" opacity="0.1"/><use href="#a3" x="-254" y="1286" width="236" height="236" opacity="0.1"/><use href="#a0" x="1748" y="-430" width="236" height="236" opacity="0.1"/><use href="#a1" x="1891" y="-144" width="236" height="236" opacity="0.1"/><use href="#a2" x="-540" y="714" width="236" height="236" opacity="0.1"/><use href="#a5" x="-397" y="1000" width="236" height="236" opacity="0.1"/><use href="#a4" x="-540" y="142" width="236" height="236" opacity="0.1"/><use href="#a0" x="1462" y="1286" width="236" height="236" opacity="0.1"/><use href="#a1" x="1891" y="428" width="236" height="236" opacity="0.1"/><use href="#a2" x="-254" y="-430" width="236" height="236" opacity="0.1"/><use href="#a5" x="-397" y="-144" width="236" height="236" opacity="0.117"/><use href="#a4" x="32" y="1286" width="236" height="236" opacity="0.142"/><use href="#a6" x="1605" y="1000" width="236" height="236" opacity="0.157"/><use href="#a5" x="1748" y="714" width="236" height="236" opacity="0.165"/><use href="#a4" x="1462" y="-430" width="236" height="236" opacity="0.207"/><use href="#a5" x="-397" y="428" width="236" height="236" opacity="0.215"/><use href="#a2" x="1748" y="142" width="236" height="236" opacity="0.215"/><use href="#a2" x="1176" y="1286" width="236" height="236" opacity="0.224"/><use href="#a6" x="1605" y="-144" width="236" height="236" opacity="0.26"/><use href="#a0" x="-111" y="1000" width="236" height="236" opacity="0.262"/><use href="#a2" x="318" y="1286" width="236" height="236" opacity="0.278"/><use href="#a6" x="-254" y="714" width="236" height="236" opacity="0.288"/><use href="#a6" x="32" y="-430" width="236" height="236" opacity="0.298"/><use href="#a5" x="890" y="1286" width="236" height="236" opacity="0.324"/><use href="#a1" x="604" y="1286" width="236" height="236" opacity="0.343"/><use href="#a3" x="-254" y="142" width="236" height="236" opacity="0.345"/><use href="#a3" x="1605" y="428" width="236" height="236" opacity="0.373"/><use href="#a1" x="-111" y="-144" width="236" height="236" opacity="0.376"/><use href="#a4" x="1319" y="1000" width="236" height="236" opacity="0.378"/><use href="#a1" x="1176" y="-430" width="236" height="236" opacity="0.393"/><use href="#a0" x="1462" y="714" width="236" height="236" opacity="0.434"/><use href="#a4" x="318" y="-430" width="236" height="236" opacity="0.458"/><use href="#a5" x="175" y="1000" width="236" height="236" opacity="0.464"/><use href="#a0" x="1462" y="142" width="236" height="236" opacity="0.501"/><use href="#a0" x="-111" y="428" width="236" height="236" opacity="0.505"/><use href="#a3" x="1319" y="-144" width="236" height="236" opacity="0.509"/><use href="#a2" x="890" y="-430" width="236" height="236" opacity="0.514"/><use href="#a6" x="604" y="-430" width="236" height="236" opacity="0.538"/><use href="#a6" x="1033" y="1000" width="236" height="236" opacity="0.55"/><use href="#a4" x="32" y="714" width="236" height="236" opacity="0.551"/><use href="#a3" x="461" y="1000" width="236" height="236" opacity="0.602"/><use href="#a5" x="175" y="-144" width="236" height="236" opacity="0.61"/><use href="#a2" x="32" y="142" width="236" height="236" opacity="0.629"/><use href="#a4" x="747" y="1000" width="236" height="236" opacity="0.635"/><use href="#a6" x="1319" y="428" width="236" height="236" opacity="0.663"/><use href="#a1" x="1176" y="714" width="236" height="236" opacity="0.683"/><use href="#a4" x="1033" y="-144" width="236" height="236" opacity="0.717"/><use href="#a5" x="1176" y="142" width="236" height="236" opacity="0.78"/><use href="#a6" x="318" y="714" width="236" height="236" opacity="0.782"/><use href="#a3" x="461" y="-144" width="236" height="236" opacity="0.784"/><use href="#a1" x="175" y="428" width="236" height="236" opacity="0.793"/><use href="#a5" x="747" y="-144" width="236" height="236" opacity="0.83"/><use href="#a0" x="890" y="714" width="236" height="236" opacity="0.876"/><use href="#a4" x="318" y="142" width="236" height="236" opacity="0.901"/><use href="#a5" x="604" y="714" width="236" height="236" opacity="0.922"/><use href="#a2" x="1033" y="428" width="236" height="236" opacity="0.949"/><use href="#a0" x="461" y="428" width="236" height="236" opacity="1.0"/><use href="#a4" x="890" y="142" width="236" height="236" opacity="1.0"/><use href="#a1" x="604" y="142" width="236" height="236" opacity="1.0"/><use href="#a3" x="747" y="428" width="236" height="236" opacity="1.0"/></g></svg>